%FSLAX23Y23*%
%MOIN*%
G70*
G01*
G75*
G04 Layer_Color=16711935*
%ADD10O,0.024X0.087*%
%ADD11R,0.067X0.043*%
%ADD12R,0.276X0.118*%
%ADD13C,0.033*%
%ADD14C,0.020*%
%ADD15C,0.025*%
%ADD16R,0.150X0.150*%
%ADD17C,0.150*%
%ADD18R,0.150X0.150*%
%ADD19R,0.059X0.059*%
%ADD20C,0.059*%
%ADD21R,0.059X0.059*%
%ADD22C,0.059*%
%ADD23C,0.060*%
%ADD24R,0.059X0.059*%
%ADD25C,0.050*%
%ADD26C,0.010*%
%ADD27C,0.008*%
%ADD28C,0.010*%
%ADD29O,0.032X0.095*%
%ADD30R,0.075X0.051*%
%ADD31R,0.284X0.126*%
%ADD32R,0.158X0.158*%
%ADD33C,0.158*%
%ADD34R,0.158X0.158*%
%ADD35R,0.067X0.067*%
%ADD36C,0.067*%
%ADD37R,0.067X0.067*%
%ADD38C,0.067*%
%ADD39C,0.068*%
%ADD40R,0.067X0.067*%
%ADD41C,0.058*%
D29*
X3165Y2034D02*
D03*
X3215D02*
D03*
X3265D02*
D03*
X3315D02*
D03*
X3365D02*
D03*
X3415D02*
D03*
X3465D02*
D03*
X3515D02*
D03*
X3165Y1846D02*
D03*
X3215D02*
D03*
X3265D02*
D03*
X3315D02*
D03*
X3365D02*
D03*
X3415D02*
D03*
X3465D02*
D03*
X3515D02*
D03*
D32*
X4000Y1754D02*
D03*
Y2155D02*
D03*
D33*
Y1557D02*
D03*
Y1958D02*
D03*
X3399Y1200D02*
D03*
X3203D02*
D03*
X2798D02*
D03*
X2602D02*
D03*
X3805D02*
D03*
D34*
X3006D02*
D03*
X2405D02*
D03*
X3608D02*
D03*
D35*
X2720Y2360D02*
D03*
X2600D02*
D03*
D36*
X2820D02*
D03*
X2920D02*
D03*
X3020D02*
D03*
X3120D02*
D03*
X3220D02*
D03*
X3320D02*
D03*
X3420D02*
D03*
X2160Y1560D02*
D03*
Y1660D02*
D03*
Y1760D02*
D03*
Y1860D02*
D03*
Y1960D02*
D03*
Y2060D02*
D03*
Y2160D02*
D03*
X2500Y2360D02*
D03*
D37*
X2359Y1797D02*
D03*
D38*
X2459D02*
D03*
X2559D02*
D03*
X2659D02*
D03*
X2759D02*
D03*
X2859D02*
D03*
X2959D02*
D03*
X3059D02*
D03*
X2359Y2097D02*
D03*
X2459D02*
D03*
X2559D02*
D03*
X2659D02*
D03*
X2759D02*
D03*
X2859D02*
D03*
X2959D02*
D03*
X3059D02*
D03*
D39*
X2205Y1225D02*
D03*
Y2420D02*
D03*
X4015D02*
D03*
Y1225D02*
D03*
D40*
X2160Y1460D02*
D03*
D41*
X3699Y2023D02*
D03*
X3249Y1711D02*
D03*
X3138Y1567D02*
D03*
X2977Y1579D02*
D03*
X3506Y1554D02*
D03*
X3260Y2140D02*
D03*
X2387Y1463D02*
D03*
X2568Y1520D02*
D03*
M02*
