M48
;Layer_Color=9474304
;FILE_FORMAT=2:3
INCH,LZ
;TYPE=PLATED
T1F00S00C0.028
T2F00S00C0.035
T3F00S00C0.039
T4F00S00C0.043
T5F00S00C0.047
T6F00S00C0.063
T7F00S00C0.097
T8F00S00C0.220
;TYPE=NON_PLATED
T9F00S00C0.130
%
T01
X0248Y01155
X02605Y0133
X0291Y01284
X0307Y01395
X03055Y01457
X0332Y01461
Y01339
X0363Y01155
X03405Y01695
X03445Y01845
X03435Y0194
X0354Y0205
X03385Y02115
X0346Y02267
X03632Y0224
X0366Y02414
X03724Y0246
X03811Y02457
X03841Y02521
X03752Y02528
Y02609
X03998Y02643
X04028Y02922
X03867Y02919
X04087Y03037
X03487Y02525
X0314Y02245
X03775Y0207
X0311Y01775
X0312Y017
X03015Y01685
X03Y01785
X02665Y01865
X0245Y0179
X0256Y016
X02498Y03004
X0257Y03474
X0384Y0341
T02
X0238Y012
Y013
Y014
Y015
X0216Y0146
Y0156
X0276Y012
X0286
X0296
X0306
X0318
X0328
X0338
X0348
X0378
Y013
Y014
Y015
X0396Y0146
Y0156
Y0166
Y0176
Y0186
Y0196
X0378Y016
X0342Y0236
X0332
X0322
X03625Y0307
X03725
X03825
X03925
X02798Y0288
X02602
X0238Y0308
X025Y0236
X026
X0272
X0282
X0292
X0302
X0312
X029Y0254
Y0264
X0216Y0216
Y0206
Y0196
Y0186
Y0176
Y0166
X0238Y017
Y016
Y0318
X02662Y0332
X02858
X03675Y0317
X03775
X03875
X03975
T03
X02123Y03387
Y03466
X02281Y03545
X02359
X02369Y03301
X02271
X03551Y03553
X03651Y0362
X03949Y03553
X04049Y0362
T04
X0356Y017
Y019
X0328Y029
X0318
X0308
X0238Y0234
Y0214
T05
X0308Y034
X0318
X0328
T06
X0349Y0329
X0411
T07
X0218Y02692
Y02888
Y03085
T08
X02205Y01225
X04015
Y0242
X02205
T09
X03575Y0342
X04025
M30
