%FSLAX42Y42*%
%MOMM*%
G71*
G01*
G75*
G04 Layer_Color=16711935*
%ADD10R,1.10X1.40*%
%ADD11O,2.20X0.60*%
%ADD12R,1.10X1.70*%
%ADD13R,1.40X6.70*%
%ADD14C,0.64*%
%ADD15C,0.55*%
%ADD16C,0.30*%
%ADD17C,3.81*%
%ADD18R,3.81X3.81*%
%ADD19R,1.85X1.85*%
%ADD20C,1.85*%
%ADD21C,1.50*%
%ADD22R,1.50X1.50*%
%ADD23R,1.50X1.50*%
%ADD24O,2.00X1.00*%
%ADD25O,2.00X1.00*%
%ADD26C,1.52*%
%ADD27C,3.80*%
%ADD28R,1.60X1.60*%
%ADD29C,1.60*%
%ADD30C,1.50*%
%ADD31R,1.50X1.50*%
%ADD32R,1.50X1.50*%
%ADD33O,2.00X4.50*%
%ADD34O,2.00X4.00*%
%ADD35O,4.00X2.00*%
%ADD36C,1.27*%
%ADD37C,0.25*%
%ADD38C,0.20*%
%ADD39C,0.60*%
%ADD40C,0.25*%
%ADD41C,0.20*%
%ADD42C,0.15*%
%ADD43R,1.30X1.60*%
%ADD44O,2.40X0.80*%
%ADD45R,1.30X1.90*%
%ADD46R,1.60X6.90*%
%ADD47C,4.01*%
%ADD48R,4.01X4.01*%
%ADD49R,2.05X2.05*%
%ADD50C,2.05*%
%ADD51C,1.70*%
%ADD52R,1.70X1.70*%
%ADD53R,1.70X1.70*%
%ADD54O,2.20X1.20*%
%ADD55O,2.20X1.20*%
%ADD56C,1.73*%
%ADD57C,4.00*%
%ADD58R,1.80X1.80*%
%ADD59C,1.80*%
%ADD60C,1.70*%
%ADD61R,1.70X1.70*%
%ADD62R,1.70X1.70*%
%ADD63O,2.20X4.70*%
%ADD64O,2.20X4.20*%
%ADD65O,4.20X2.20*%
%ADD66C,1.47*%
%ADD67C,1.00*%
%ADD68C,0.03*%
%ADD69C,2.02*%
%ADD70C,0.10*%
D70*
X24883Y25001D02*
G03*
X24883Y25001I-50J0D01*
G01*
X31538Y21140D02*
G03*
X31538Y21140I-50J0D01*
G01*
X23414Y19578D02*
G03*
X23414Y19578I-50J0D01*
G01*
X28643Y21822D02*
X28863D01*
X28643Y21967D02*
X28863D01*
Y21822D02*
Y21967D01*
X28643Y21822D02*
Y21967D01*
X21309Y21699D02*
X22949D01*
X21309Y22903D02*
X22949D01*
X21309Y21699D02*
Y22903D01*
X22949Y21699D02*
Y22903D01*
X24743Y24591D02*
X25143D01*
X24743Y25091D02*
X25143D01*
Y24591D02*
Y25091D01*
X24743Y24591D02*
Y25091D01*
X31398Y20730D02*
X31798D01*
X31398Y21230D02*
X31798D01*
Y20730D02*
Y21230D01*
X31398Y20730D02*
Y21230D01*
X28077Y21807D02*
Y21982D01*
X28412Y21807D02*
Y21982D01*
X28077D02*
X28412D01*
X28077Y21807D02*
X28412D01*
X28644Y19488D02*
Y20948D01*
X23274Y19488D02*
Y20948D01*
X28644D01*
X23274Y19488D02*
X28644D01*
X22977Y18251D02*
Y18426D01*
X22642Y18251D02*
Y18426D01*
Y18251D02*
X22977D01*
X22642Y18426D02*
X22977D01*
X22283Y20972D02*
Y21147D01*
X21948Y20972D02*
Y21147D01*
Y20972D02*
X22283D01*
X21948Y21147D02*
X22283D01*
X26757Y23585D02*
Y23760D01*
X27092Y23585D02*
Y23760D01*
X26757D02*
X27092D01*
X26757Y23585D02*
X27092D01*
X27265D02*
Y23760D01*
X27600Y23585D02*
Y23760D01*
X27265D02*
X27600D01*
X27265Y23585D02*
X27600D01*
X27417Y21807D02*
Y21982D01*
X27752Y21807D02*
Y21982D01*
X27417D02*
X27752D01*
X27417Y21807D02*
X27752D01*
X28077Y22976D02*
Y23151D01*
X28412Y22976D02*
Y23151D01*
X28077D02*
X28412D01*
X28077Y22976D02*
X28412D01*
X23230Y22876D02*
Y23556D01*
X23820Y22876D02*
Y23556D01*
X23230D02*
X23820D01*
X23230Y22876D02*
X23820D01*
X23230Y24908D02*
Y25588D01*
X23820Y24908D02*
Y25588D01*
X23230D02*
X23820D01*
X23230Y24908D02*
X23820D01*
X25595Y18266D02*
Y18411D01*
X25815Y18266D02*
Y18411D01*
X25595D02*
X25815D01*
X25595Y18266D02*
X25815D01*
X24799Y21771D02*
Y21917D01*
X25019Y21771D02*
Y21917D01*
X24799D02*
X25019D01*
X24799Y21771D02*
X25019D01*
X25036Y18266D02*
Y18411D01*
X25256Y18266D02*
Y18411D01*
X25036D02*
X25256D01*
X25036Y18266D02*
X25256D01*
X26831D02*
Y18411D01*
X26611Y18266D02*
Y18411D01*
Y18266D02*
X26831D01*
X26611Y18411D02*
X26831D01*
X27627Y18317D02*
Y18462D01*
X27847Y18317D02*
Y18462D01*
X27627D02*
X27847D01*
X27627Y18317D02*
X27847D01*
X25815Y21771D02*
Y21917D01*
X25595Y21771D02*
Y21917D01*
Y21771D02*
X25815D01*
X25595Y21917D02*
X25815D01*
X24794Y23651D02*
Y23796D01*
X25014Y23651D02*
Y23796D01*
X24794D02*
X25014D01*
X24794Y23651D02*
X25014D01*
M02*
