%FSLAX42Y42*%
%MOMM*%
G71*
G01*
G75*
G04 Layer_Color=8421504*
%ADD10R,1.10X1.40*%
%ADD11O,2.20X0.60*%
%ADD12R,1.10X1.70*%
%ADD13R,1.40X6.70*%
%ADD14C,0.64*%
%ADD15C,0.55*%
%ADD16C,0.30*%
%ADD17C,3.81*%
%ADD18R,3.81X3.81*%
%ADD19R,1.85X1.85*%
%ADD20C,1.85*%
%ADD21C,1.50*%
%ADD22R,1.50X1.50*%
%ADD23R,1.50X1.50*%
%ADD24O,2.00X1.00*%
%ADD25O,2.00X1.00*%
%ADD26C,1.52*%
%ADD27C,3.80*%
%ADD28R,1.60X1.60*%
%ADD29C,1.60*%
%ADD30C,1.50*%
%ADD31R,1.50X1.50*%
%ADD32R,1.50X1.50*%
%ADD33O,2.00X4.50*%
%ADD34O,2.00X4.00*%
%ADD35O,4.00X2.00*%
%ADD36C,1.27*%
%ADD37C,0.25*%
%ADD38C,0.20*%
%ADD39C,0.60*%
%ADD40C,0.25*%
%ADD41C,0.20*%
%ADD42C,0.15*%
D10*
X28828Y21895D02*
D03*
X28678D02*
D03*
X25630Y18339D02*
D03*
X25780D02*
D03*
X24834Y21844D02*
D03*
X24984D02*
D03*
X25071Y18339D02*
D03*
X25221D02*
D03*
X26796D02*
D03*
X26646D02*
D03*
X27662Y18390D02*
D03*
X27812D02*
D03*
X25780Y21844D02*
D03*
X25630D02*
D03*
X24829Y23724D02*
D03*
X24979D02*
D03*
D11*
X25183Y24651D02*
D03*
Y24778D02*
D03*
Y24905D02*
D03*
Y25032D02*
D03*
X24703Y24651D02*
D03*
Y24778D02*
D03*
Y24905D02*
D03*
Y25032D02*
D03*
X31838Y20790D02*
D03*
Y20917D02*
D03*
Y21044D02*
D03*
Y21171D02*
D03*
X31358Y20790D02*
D03*
Y20917D02*
D03*
Y21044D02*
D03*
Y21171D02*
D03*
D12*
X28110Y21895D02*
D03*
X28380D02*
D03*
X22944Y18339D02*
D03*
X22674D02*
D03*
X22251Y21059D02*
D03*
X21981D02*
D03*
X26789Y23673D02*
D03*
X27059D02*
D03*
X27297D02*
D03*
X27567D02*
D03*
X27449Y21895D02*
D03*
X27719D02*
D03*
X28110Y23063D02*
D03*
X28380D02*
D03*
D13*
X23275Y23216D02*
D03*
X23775D02*
D03*
X23275Y25248D02*
D03*
X23775D02*
D03*
M02*
