%FSLAX42Y42*%
%MOMM*%
G71*
G01*
G75*
%ADD10R,1.10X1.40*%
%ADD11O,2.20X0.60*%
%ADD12R,1.10X1.70*%
%ADD13R,1.40X6.70*%
%ADD14C,0.64*%
%ADD15C,0.55*%
%ADD16C,0.30*%
%ADD17C,3.81*%
%ADD18R,3.81X3.81*%
%ADD19R,1.85X1.85*%
%ADD20C,1.85*%
%ADD21C,1.50*%
%ADD22R,1.50X1.50*%
%ADD23R,1.50X1.50*%
%ADD24O,2.00X1.00*%
%ADD25O,2.00X1.00*%
%ADD26C,1.52*%
%ADD27C,3.80*%
%ADD28R,1.60X1.60*%
%ADD29C,1.60*%
%ADD30C,1.50*%
%ADD31R,1.50X1.50*%
%ADD32R,1.50X1.50*%
%ADD33O,2.00X4.50*%
%ADD34O,2.00X4.00*%
%ADD35O,4.00X2.00*%
%ADD36C,1.27*%
%ADD37C,0.25*%
%ADD38C,0.20*%
%ADD39C,0.60*%
%ADD40C,0.25*%
%ADD41C,0.20*%
%ADD42C,0.15*%
D37*
X25749Y18796D02*
G03*
X25749Y18796I-12J0D01*
G01*
X23026Y22176D02*
G03*
X23026Y22176I-12J0D01*
G01*
X24715Y25117D02*
G03*
X24715Y25117I-12J0D01*
G01*
X31370Y21256D02*
G03*
X31370Y21256I-12J0D01*
G01*
X23428Y19456D02*
G03*
X23428Y19456I-12J0D01*
G01*
X22244Y18898D02*
G03*
X22244Y18898I-12J0D01*
G01*
D38*
X24173Y24232D02*
G03*
X24173Y24232I-500J0D01*
G01*
X22707Y23890D02*
G03*
X22707Y23456I-152J-217D01*
G01*
X31674Y18083D02*
G03*
X31547Y18083I-63J0D01*
G01*
X31674Y23366D02*
G03*
X31547Y23366I-63J0D01*
G01*
X21996Y23890D02*
G03*
X21996Y23456I-152J-217D01*
G01*
X23274Y20155D02*
G03*
X23274Y20282I0J63D01*
G01*
X25787Y24676D02*
G03*
X25787Y24803I0J63D01*
G01*
X25837Y22644D02*
G03*
X25837Y22771I0J63D01*
G01*
X25785Y18923D02*
X26641D01*
Y18669D02*
Y18923D01*
X25785Y18669D02*
X26641D01*
X25785D02*
Y18923D01*
X29185Y24105D02*
Y25121D01*
X28677Y24105D02*
X29185D01*
X28677D02*
Y25121D01*
X29185D01*
X31064Y22022D02*
Y22276D01*
X32080D01*
X31064Y22022D02*
X32080D01*
Y22276D01*
X22710Y23463D02*
Y23883D01*
X24714Y22835D02*
Y23089D01*
X25476D01*
Y22835D02*
Y23089D01*
X24714Y22835D02*
X25476D01*
X21636Y17399D02*
Y18923D01*
X21382Y17399D02*
Y18923D01*
Y17399D02*
X21636D01*
X21382Y18923D02*
X21636D01*
X29794Y21717D02*
X30048D01*
X29794D02*
Y25273D01*
X30048D01*
Y25082D02*
Y25273D01*
Y21717D02*
Y25082D01*
X21309Y21699D02*
X22107D01*
X21309D02*
Y22903D01*
X22107D01*
X22567D02*
X22949D01*
Y21699D02*
Y22903D01*
X22567Y21699D02*
X22949D01*
X31674Y18083D02*
X32163D01*
X31084Y20271D02*
X32163D01*
Y18083D02*
Y20271D01*
X31084Y18083D02*
Y20271D01*
Y18083D02*
X31544D01*
X31674Y23366D02*
X32163D01*
X31084Y25554D02*
X32163D01*
Y23366D02*
Y25554D01*
X31084Y23366D02*
Y25554D01*
Y23366D02*
X31544D01*
X24853Y24591D02*
X25033D01*
X24853Y25091D02*
X25033D01*
Y24591D02*
Y25091D01*
X24853Y24591D02*
Y25091D01*
X31508Y20730D02*
X31688D01*
X31508Y21230D02*
X31688D01*
Y20730D02*
Y21230D01*
X31508Y20730D02*
Y21230D01*
X28205Y21970D02*
X28285D01*
X28205Y21820D02*
X28285D01*
X21636Y19662D02*
Y21186D01*
X21382Y19662D02*
Y21186D01*
Y19662D02*
X21636D01*
X21382Y21186D02*
X21636D01*
X23292Y22276D02*
Y22530D01*
X24308D01*
X23292Y22276D02*
X24308D01*
Y22530D01*
X21999Y23463D02*
Y23883D01*
X28644Y19573D02*
Y20863D01*
X23274Y20282D02*
Y20863D01*
Y19573D02*
Y20155D01*
Y20863D02*
X28644D01*
X23274Y19573D02*
X28644D01*
X25787Y25005D02*
X27757D01*
X25787Y24475D02*
X27757D01*
Y25005D01*
X25787Y24803D02*
Y25005D01*
Y24475D02*
Y24676D01*
X21336Y24493D02*
X22166D01*
X22606D02*
X22796D01*
Y24723D01*
X21336Y24493D02*
Y25393D01*
X22796D01*
Y25163D02*
Y25393D01*
X22769Y18264D02*
X22849D01*
X22769Y18414D02*
X22849D01*
X22076Y20984D02*
X22156D01*
X22076Y21134D02*
X22156D01*
X22280Y19025D02*
X23136D01*
Y18771D02*
Y19025D01*
X22280Y18771D02*
X23136D01*
X22280D02*
Y19025D01*
X25837Y22443D02*
Y22644D01*
Y22771D02*
Y22973D01*
X27807Y22443D02*
Y22973D01*
X25837Y22443D02*
X27807D01*
X25837Y22973D02*
X27807D01*
X26884Y23748D02*
X26964D01*
X26884Y23598D02*
X26964D01*
X27392Y23748D02*
X27472D01*
X27392Y23598D02*
X27472D01*
X27544Y21970D02*
X27624D01*
X27544Y21820D02*
X27624D01*
X28205Y23138D02*
X28285D01*
X28205Y22988D02*
X28285D01*
X23952Y21463D02*
X24460D01*
Y21717D01*
X23952D02*
X24460D01*
X23952Y21463D02*
Y21717D01*
X28372Y18110D02*
Y18618D01*
Y18110D02*
X28626D01*
Y18618D01*
X28372D02*
X28626D01*
X23385Y23541D02*
X23665D01*
X23385Y22891D02*
X23665D01*
X23385Y25573D02*
X23665D01*
X23385Y24923D02*
X23665D01*
D39*
X23404Y19673D02*
G03*
X23404Y19673I-30J0D01*
G01*
D40*
X26319Y16535D02*
X28301D01*
X26319Y17094D02*
X28301D01*
Y16535D02*
Y17094D01*
X26319Y16535D02*
Y17094D01*
X24323Y16535D02*
X26304D01*
X24323Y17094D02*
X26304D01*
Y16535D02*
Y17094D01*
X24323Y16535D02*
Y17094D01*
X26327Y25984D02*
X28308D01*
X26327Y26543D02*
X28308D01*
Y25984D02*
Y26543D01*
X26327Y25984D02*
Y26543D01*
X24323Y25984D02*
X26304D01*
X24323Y26543D02*
X26304D01*
Y25984D02*
Y26543D01*
X24323Y25984D02*
Y26543D01*
X22327Y25984D02*
X24308D01*
X22327Y26543D02*
X24308D01*
Y25984D02*
Y26543D01*
X22327Y25984D02*
Y26543D01*
X28331Y25984D02*
Y26543D01*
X30312Y25984D02*
Y26543D01*
X28331D02*
X30312D01*
X28331Y25984D02*
X30312D01*
X28316Y16535D02*
X30297D01*
X28316Y17094D02*
X30297D01*
Y16535D02*
Y17094D01*
X28316Y16535D02*
Y17094D01*
X22327Y16535D02*
Y17094D01*
X24308Y16535D02*
Y17094D01*
X22327D02*
X24308D01*
X22327Y16535D02*
X24308D01*
X28693Y25328D02*
Y25480D01*
X28769D01*
X28795Y25455D01*
Y25404D01*
X28769Y25378D01*
X28693D01*
X28922Y25480D02*
X28871D01*
X28845Y25455D01*
Y25353D01*
X28871Y25328D01*
X28922D01*
X28947Y25353D01*
Y25455D01*
X28922Y25480D01*
X22305Y24202D02*
Y24075D01*
X22330Y24050D01*
X22381D01*
X22407Y24075D01*
Y24202D01*
X22457Y24177D02*
X22483Y24202D01*
X22534D01*
X22559Y24177D01*
Y24152D01*
X22534Y24126D01*
X22508D01*
X22534D01*
X22559Y24101D01*
Y24075D01*
X22534Y24050D01*
X22483D01*
X22457Y24075D01*
X22610Y24025D02*
X22711D01*
X22762Y24050D02*
X22813D01*
X22787D01*
Y24202D01*
X22762Y24177D01*
X31953Y23114D02*
X32106D01*
Y23038D01*
X32080Y23012D01*
X32029D01*
X32004Y23038D01*
Y23114D01*
Y23063D02*
X31953Y23012D01*
X32106Y22860D02*
Y22962D01*
X31953D01*
Y22860D01*
X32029Y22962D02*
Y22911D01*
X32106Y22809D02*
X31953D01*
Y22708D01*
X31928Y22657D02*
Y22555D01*
X32106Y22403D02*
Y22505D01*
X32029D01*
X32055Y22454D01*
Y22428D01*
X32029Y22403D01*
X31979D01*
X31953Y22428D01*
Y22479D01*
X31979Y22505D01*
X31928Y22352D02*
Y22251D01*
X31953Y22200D02*
Y22149D01*
Y22175D01*
X32106D01*
X32080Y22200D01*
X31953Y21971D02*
Y22073D01*
X32055Y21971D01*
X32080D01*
X32106Y21997D01*
Y22048D01*
X32080Y22073D01*
X25852Y23404D02*
Y23277D01*
X25878Y23251D01*
X25928D01*
X25954Y23277D01*
Y23404D01*
X26106Y23251D02*
X26004D01*
X26106Y23353D01*
Y23378D01*
X26081Y23404D01*
X26030D01*
X26004Y23378D01*
X26258Y23251D02*
X26157D01*
X26258Y23353D01*
Y23378D01*
X26233Y23404D01*
X26182D01*
X26157Y23378D01*
X24826Y24026D02*
X24801Y24051D01*
X24750D01*
X24724Y24026D01*
Y23924D01*
X24750Y23899D01*
X24801D01*
X24826Y23924D01*
X24877Y23899D02*
X24927D01*
X24902D01*
Y24051D01*
X24877Y24026D01*
X25004D02*
X25029Y24051D01*
X25080D01*
X25105Y24026D01*
Y23924D01*
X25080Y23899D01*
X25029D01*
X25004Y23924D01*
Y24026D01*
X23289Y25725D02*
X23264Y25750D01*
X23213D01*
X23187Y25725D01*
Y25624D01*
X23213Y25598D01*
X23264D01*
X23289Y25624D01*
X23340Y25725D02*
X23365Y25750D01*
X23416D01*
X23441Y25725D01*
Y25700D01*
X23416Y25674D01*
X23441Y25649D01*
Y25624D01*
X23416Y25598D01*
X23365D01*
X23340Y25624D01*
Y25649D01*
X23365Y25674D01*
X23340Y25700D01*
Y25725D01*
X23365Y25674D02*
X23416D01*
X23289Y23599D02*
X23264Y23624D01*
X23213D01*
X23187Y23599D01*
Y23498D01*
X23213Y23472D01*
X23264D01*
X23289Y23498D01*
X23340Y23624D02*
X23441D01*
Y23599D01*
X23340Y23498D01*
Y23472D01*
X23437Y24646D02*
X23411Y24671D01*
X23360D01*
X23335Y24646D01*
Y24544D01*
X23360Y24519D01*
X23411D01*
X23437Y24544D01*
X23589Y24671D02*
X23538Y24646D01*
X23487Y24595D01*
Y24544D01*
X23513Y24519D01*
X23564D01*
X23589Y24544D01*
Y24569D01*
X23564Y24595D01*
X23487D01*
X28329Y17209D02*
Y17361D01*
X28405D01*
X28430Y17335D01*
Y17285D01*
X28405Y17259D01*
X28329D01*
X28557Y17361D02*
X28506D01*
X28481Y17335D01*
Y17234D01*
X28506Y17209D01*
X28557D01*
X28583Y17234D01*
Y17335D01*
X28557Y17361D01*
X28633D02*
Y17234D01*
X28659Y17209D01*
X28709D01*
X28735Y17234D01*
Y17361D01*
X28786D02*
X28887D01*
X28836D01*
Y17209D01*
X28938Y17183D02*
X29040D01*
X29090Y17361D02*
Y17209D01*
X29167D01*
X29192Y17234D01*
Y17259D01*
X29167Y17285D01*
X29090D01*
X29167D01*
X29192Y17310D01*
Y17335D01*
X29167Y17361D01*
X29090D01*
X29319Y17209D02*
Y17361D01*
X29243Y17285D01*
X29344D01*
X26332Y17209D02*
Y17361D01*
X26408D01*
X26434Y17335D01*
Y17285D01*
X26408Y17259D01*
X26332D01*
X26561Y17361D02*
X26510D01*
X26485Y17335D01*
Y17234D01*
X26510Y17209D01*
X26561D01*
X26586Y17234D01*
Y17335D01*
X26561Y17361D01*
X26637D02*
Y17234D01*
X26662Y17209D01*
X26713D01*
X26738Y17234D01*
Y17361D01*
X26789D02*
X26891D01*
X26840D01*
Y17209D01*
X26942Y17183D02*
X27043D01*
X27094Y17361D02*
Y17209D01*
X27170D01*
X27196Y17234D01*
Y17259D01*
X27170Y17285D01*
X27094D01*
X27170D01*
X27196Y17310D01*
Y17335D01*
X27170Y17361D01*
X27094D01*
X27246Y17335D02*
X27272Y17361D01*
X27322D01*
X27348Y17335D01*
Y17310D01*
X27322Y17285D01*
X27297D01*
X27322D01*
X27348Y17259D01*
Y17234D01*
X27322Y17209D01*
X27272D01*
X27246Y17234D01*
X24336Y17209D02*
Y17361D01*
X24412D01*
X24437Y17335D01*
Y17285D01*
X24412Y17259D01*
X24336D01*
X24564Y17361D02*
X24513D01*
X24488Y17335D01*
Y17234D01*
X24513Y17209D01*
X24564D01*
X24590Y17234D01*
Y17335D01*
X24564Y17361D01*
X24640D02*
Y17234D01*
X24666Y17209D01*
X24717D01*
X24742Y17234D01*
Y17361D01*
X24793D02*
X24894D01*
X24844D01*
Y17209D01*
X24945Y17183D02*
X25047D01*
X25097Y17361D02*
Y17209D01*
X25174D01*
X25199Y17234D01*
Y17259D01*
X25174Y17285D01*
X25097D01*
X25174D01*
X25199Y17310D01*
Y17335D01*
X25174Y17361D01*
X25097D01*
X25351Y17209D02*
X25250D01*
X25351Y17310D01*
Y17335D01*
X25326Y17361D01*
X25275D01*
X25250Y17335D01*
X22339Y17209D02*
Y17361D01*
X22415D01*
X22441Y17335D01*
Y17285D01*
X22415Y17259D01*
X22339D01*
X22568Y17361D02*
X22517D01*
X22492Y17335D01*
Y17234D01*
X22517Y17209D01*
X22568D01*
X22593Y17234D01*
Y17335D01*
X22568Y17361D01*
X22644D02*
Y17234D01*
X22669Y17209D01*
X22720D01*
X22746Y17234D01*
Y17361D01*
X22796D02*
X22898D01*
X22847D01*
Y17209D01*
X22949Y17183D02*
X23050D01*
X23101Y17361D02*
Y17209D01*
X23177D01*
X23203Y17234D01*
Y17259D01*
X23177Y17285D01*
X23101D01*
X23177D01*
X23203Y17310D01*
Y17335D01*
X23177Y17361D01*
X23101D01*
X23253Y17209D02*
X23304D01*
X23279D01*
Y17361D01*
X23253Y17335D01*
X26340Y26632D02*
Y26784D01*
X26416D01*
X26441Y26759D01*
Y26708D01*
X26416Y26683D01*
X26340D01*
X26568Y26784D02*
X26518D01*
X26492Y26759D01*
Y26657D01*
X26518Y26632D01*
X26568D01*
X26594Y26657D01*
Y26759D01*
X26568Y26784D01*
X26645D02*
Y26657D01*
X26670Y26632D01*
X26721D01*
X26746Y26657D01*
Y26784D01*
X26797D02*
X26898D01*
X26848D01*
Y26632D01*
X26949Y26759D02*
X26975Y26784D01*
X27025D01*
X27051Y26759D01*
Y26733D01*
X27025Y26708D01*
X27000D01*
X27025D01*
X27051Y26683D01*
Y26657D01*
X27025Y26632D01*
X26975D01*
X26949Y26657D01*
X28344Y26632D02*
Y26784D01*
X28420D01*
X28445Y26759D01*
Y26708D01*
X28420Y26683D01*
X28344D01*
X28572Y26784D02*
X28522D01*
X28496Y26759D01*
Y26657D01*
X28522Y26632D01*
X28572D01*
X28598Y26657D01*
Y26759D01*
X28572Y26784D01*
X28649D02*
Y26657D01*
X28674Y26632D01*
X28725D01*
X28750Y26657D01*
Y26784D01*
X28801D02*
X28902D01*
X28852D01*
Y26632D01*
X29029D02*
Y26784D01*
X28953Y26708D01*
X29055D01*
X24336Y26632D02*
Y26784D01*
X24412D01*
X24437Y26759D01*
Y26708D01*
X24412Y26683D01*
X24336D01*
X24564Y26784D02*
X24513D01*
X24488Y26759D01*
Y26657D01*
X24513Y26632D01*
X24564D01*
X24590Y26657D01*
Y26759D01*
X24564Y26784D01*
X24640D02*
Y26657D01*
X24666Y26632D01*
X24717D01*
X24742Y26657D01*
Y26784D01*
X24793D02*
X24894D01*
X24844D01*
Y26632D01*
X25047D02*
X24945D01*
X25047Y26733D01*
Y26759D01*
X25021Y26784D01*
X24971D01*
X24945Y26759D01*
X22339Y26632D02*
Y26784D01*
X22415D01*
X22441Y26759D01*
Y26708D01*
X22415Y26683D01*
X22339D01*
X22568Y26784D02*
X22517D01*
X22492Y26759D01*
Y26657D01*
X22517Y26632D01*
X22568D01*
X22593Y26657D01*
Y26759D01*
X22568Y26784D01*
X22644D02*
Y26657D01*
X22669Y26632D01*
X22720D01*
X22746Y26657D01*
Y26784D01*
X22796D02*
X22898D01*
X22847D01*
Y26632D01*
X22949D02*
X22999D01*
X22974D01*
Y26784D01*
X22949Y26759D01*
X22233Y19111D02*
Y19263D01*
X22309D01*
X22334Y19238D01*
Y19187D01*
X22309Y19162D01*
X22233D01*
X22283D02*
X22334Y19111D01*
X22487Y19238D02*
X22461Y19263D01*
X22410D01*
X22385Y19238D01*
Y19213D01*
X22410Y19187D01*
X22461D01*
X22487Y19162D01*
Y19136D01*
X22461Y19111D01*
X22410D01*
X22385Y19136D01*
X22537Y19263D02*
X22639D01*
X22588D01*
Y19111D01*
X22014Y20754D02*
X22013Y20907D01*
X22089Y20907D01*
X22114Y20882D01*
X22115Y20832D01*
X22090Y20806D01*
X22014Y20805D01*
X22064Y20806D02*
X22116Y20755D01*
X22243Y20757D02*
X22241Y20909D01*
X22166Y20832D01*
X22267Y20833D01*
X22708Y18491D02*
X22706Y18644D01*
X22782Y18644D01*
X22808Y18619D01*
X22808Y18568D01*
X22783Y18543D01*
X22707Y18542D01*
X22758Y18542D02*
X22809Y18492D01*
X22860Y18493D02*
X22911Y18493D01*
X22885Y18493D01*
X22884Y18645D01*
X22859Y18620D01*
X25681Y22123D02*
X25655Y22149D01*
X25604D01*
X25579Y22123D01*
Y22022D01*
X25604Y21996D01*
X25655D01*
X25681Y22022D01*
X25731D02*
X25757Y21996D01*
X25808D01*
X25833Y22022D01*
Y22123D01*
X25808Y22149D01*
X25757D01*
X25731Y22123D01*
Y22098D01*
X25757Y22073D01*
X25833D01*
X27659Y18693D02*
X27634Y18718D01*
X27583D01*
X27558Y18693D01*
Y18592D01*
X27583Y18566D01*
X27634D01*
X27659Y18592D01*
X27812Y18718D02*
X27710D01*
Y18642D01*
X27761Y18668D01*
X27786D01*
X27812Y18642D01*
Y18592D01*
X27786Y18566D01*
X27735D01*
X27710Y18592D01*
X25068Y18642D02*
X25043Y18668D01*
X24992D01*
X24967Y18642D01*
Y18541D01*
X24992Y18515D01*
X25043D01*
X25068Y18541D01*
X25221Y18515D02*
X25119D01*
X25221Y18617D01*
Y18642D01*
X25195Y18668D01*
X25145D01*
X25119Y18642D01*
X24909Y22123D02*
X24884Y22149D01*
X24833D01*
X24808Y22123D01*
Y22022D01*
X24833Y21996D01*
X24884D01*
X24909Y22022D01*
X24960Y21996D02*
X25011D01*
X24985D01*
Y22149D01*
X24960Y22123D01*
X23125Y25505D02*
Y25556D01*
Y25531D01*
X22998D01*
X22973Y25556D01*
Y25582D01*
X22998Y25607D01*
X22973Y25455D02*
Y25404D01*
Y25429D01*
X23125D01*
X23100Y25455D01*
X25801Y25436D02*
Y25309D01*
X25827Y25283D01*
X25877D01*
X25903Y25309D01*
Y25436D01*
X26055Y25283D02*
X25954D01*
X26055Y25385D01*
Y25410D01*
X26030Y25436D01*
X25979D01*
X25954Y25410D01*
X25959Y19304D02*
Y19279D01*
X26010Y19228D01*
X26060Y19279D01*
Y19304D01*
X26010Y19228D02*
Y19152D01*
X26111D02*
X26162D01*
X26137D01*
Y19304D01*
X26111Y19279D01*
X23289Y21295D02*
Y21168D01*
X23315Y21143D01*
X23365D01*
X23391Y21168D01*
Y21295D01*
X23442Y21143D02*
X23492D01*
X23467D01*
Y21295D01*
X23442Y21270D01*
X21594Y24177D02*
Y24050D01*
X21619Y24025D01*
X21670D01*
X21695Y24050D01*
Y24177D01*
X21746Y24152D02*
X21772Y24177D01*
X21822D01*
X21848Y24152D01*
Y24126D01*
X21822Y24101D01*
X21797D01*
X21822D01*
X21848Y24075D01*
Y24050D01*
X21822Y24025D01*
X21772D01*
X21746Y24050D01*
X24393Y22513D02*
X24545D01*
Y22437D01*
X24520Y22412D01*
X24469D01*
X24444Y22437D01*
Y22513D01*
X24393Y22259D02*
Y22361D01*
X24494Y22259D01*
X24520D01*
X24545Y22285D01*
Y22336D01*
X24520Y22361D01*
X25626Y18641D02*
X25601Y18666D01*
X25550D01*
X25524Y18641D01*
Y18539D01*
X25550Y18514D01*
X25601D01*
X25626Y18539D01*
X25677Y18641D02*
X25702Y18666D01*
X25753D01*
X25778Y18641D01*
Y18616D01*
X25753Y18590D01*
X25728D01*
X25753D01*
X25778Y18565D01*
Y18539D01*
X25753Y18514D01*
X25702D01*
X25677Y18539D01*
X26642Y18641D02*
X26617Y18666D01*
X26566D01*
X26540Y18641D01*
Y18539D01*
X26566Y18514D01*
X26617D01*
X26642Y18539D01*
X26769Y18514D02*
Y18666D01*
X26693Y18590D01*
X26794D01*
X21398Y21424D02*
X21449D01*
X21424D01*
Y21271D01*
X21398D01*
X21449D01*
X21627Y21398D02*
X21601Y21424D01*
X21551D01*
X21525Y21398D01*
Y21297D01*
X21551Y21271D01*
X21601D01*
X21627Y21297D01*
X21779Y21398D02*
X21754Y21424D01*
X21703D01*
X21678Y21398D01*
Y21373D01*
X21703Y21347D01*
X21754D01*
X21779Y21322D01*
Y21297D01*
X21754Y21271D01*
X21703D01*
X21678Y21297D01*
X21830Y21271D02*
Y21424D01*
X21906D01*
X21931Y21398D01*
Y21347D01*
X21906Y21322D01*
X21830D01*
X28478Y22248D02*
Y22095D01*
X28580D01*
X28732Y22248D02*
X28631D01*
Y22095D01*
X28732D01*
X28631Y22172D02*
X28682D01*
X28783Y22248D02*
Y22095D01*
X28859D01*
X28885Y22121D01*
Y22222D01*
X28859Y22248D01*
X28783D01*
X28936Y22095D02*
X28986D01*
X28961D01*
Y22248D01*
X28936Y22222D01*
X28125Y22050D02*
Y22202D01*
X28202D01*
X28227Y22177D01*
Y22126D01*
X28202Y22101D01*
X28125D01*
X28176D02*
X28227Y22050D01*
X28379D02*
X28278D01*
X28379Y22151D01*
Y22177D01*
X28354Y22202D01*
X28303D01*
X28278Y22177D01*
X31242Y21509D02*
Y21382D01*
X31267Y21356D01*
X31318D01*
X31344Y21382D01*
Y21509D01*
X31496D02*
X31394D01*
Y21432D01*
X31445Y21458D01*
X31471D01*
X31496Y21432D01*
Y21382D01*
X31471Y21356D01*
X31420D01*
X31394Y21382D01*
X24588Y25371D02*
Y25244D01*
X24614Y25218D01*
X24665D01*
X24690Y25244D01*
Y25371D01*
X24842D02*
X24792Y25345D01*
X24741Y25295D01*
Y25244D01*
X24766Y25218D01*
X24817D01*
X24842Y25244D01*
Y25269D01*
X24817Y25295D01*
X24741D01*
X31098Y25792D02*
Y25640D01*
Y25691D01*
X31200Y25792D01*
X31124Y25716D01*
X31200Y25640D01*
X31251D02*
X31302D01*
X31276D01*
Y25792D01*
X31251Y25767D01*
X31098Y20509D02*
Y20357D01*
Y20408D01*
X31200Y20509D01*
X31124Y20433D01*
X31200Y20357D01*
X31352D02*
X31251D01*
X31352Y20458D01*
Y20484D01*
X31327Y20509D01*
X31276D01*
X31251Y20484D01*
X22962Y21336D02*
Y21488D01*
X23038D01*
X23063Y21463D01*
Y21412D01*
X23038Y21387D01*
X22962D01*
X23114Y21311D02*
X23216D01*
X23266Y21488D02*
Y21361D01*
X23292Y21336D01*
X23342D01*
X23368Y21361D01*
Y21488D01*
X23520Y21463D02*
X23495Y21488D01*
X23444D01*
X23419Y21463D01*
Y21438D01*
X23444Y21412D01*
X23495D01*
X23520Y21387D01*
Y21361D01*
X23495Y21336D01*
X23444D01*
X23419Y21361D01*
X23571Y21488D02*
Y21336D01*
X23647D01*
X23673Y21361D01*
Y21387D01*
X23647Y21412D01*
X23571D01*
X23647D01*
X23673Y21438D01*
Y21463D01*
X23647Y21488D01*
X23571D01*
X29718Y21438D02*
Y21590D01*
X29794D01*
X29820Y21565D01*
Y21514D01*
X29794Y21488D01*
X29718D01*
X29870Y21412D02*
X29972D01*
X30023Y21438D02*
Y21590D01*
X30099D01*
X30124Y21565D01*
Y21514D01*
X30099Y21488D01*
X30023D01*
X30175Y21590D02*
X30226D01*
X30200D01*
Y21438D01*
X30175D01*
X30226D01*
X30404Y21565D02*
X30378Y21590D01*
X30327D01*
X30302Y21565D01*
Y21463D01*
X30327Y21438D01*
X30378D01*
X30404Y21463D01*
X30454Y21438D02*
Y21590D01*
Y21488D02*
X30531Y21539D01*
X30454Y21488D02*
X30531Y21438D01*
X30607D02*
X30657D01*
X30632D01*
Y21539D01*
X30607D01*
X30759Y21565D02*
Y21539D01*
X30734D01*
X30784D01*
X30759D01*
Y21463D01*
X30784Y21438D01*
X21407Y19152D02*
Y19304D01*
X21483D01*
X21509Y19279D01*
Y19228D01*
X21483Y19202D01*
X21407D01*
X21559Y19126D02*
X21661D01*
X21813Y19279D02*
X21788Y19304D01*
X21737D01*
X21712Y19279D01*
Y19253D01*
X21737Y19228D01*
X21788D01*
X21813Y19202D01*
Y19177D01*
X21788Y19152D01*
X21737D01*
X21712Y19177D01*
X21864Y19152D02*
Y19304D01*
X21940D01*
X21966Y19279D01*
Y19228D01*
X21940Y19202D01*
X21864D01*
X22017Y19304D02*
X22067D01*
X22042D01*
Y19152D01*
X22017D01*
X22067D01*
X25587Y23072D02*
X25739D01*
Y22996D01*
X25714Y22971D01*
X25663D01*
X25637Y22996D01*
Y23072D01*
X25561Y22920D02*
Y22818D01*
X25587Y22767D02*
X25739D01*
Y22691D01*
X25714Y22666D01*
X25663D01*
X25637Y22691D01*
Y22767D01*
X25739Y22615D02*
X25587D01*
X25637Y22564D01*
X25587Y22513D01*
X25739D01*
X25587Y22463D02*
X25739D01*
Y22387D01*
X25714Y22361D01*
X25663D01*
X25637Y22387D01*
Y22463D01*
Y22412D02*
X25587Y22361D01*
X25739Y22209D02*
Y22310D01*
X25663D01*
X25688Y22260D01*
Y22234D01*
X25663Y22209D01*
X25612D01*
X25587Y22234D01*
Y22285D01*
X25612Y22310D01*
X26745Y23849D02*
Y24002D01*
X26821D01*
X26846Y23976D01*
Y23926D01*
X26821Y23900D01*
X26745D01*
X26796D02*
X26846Y23849D01*
X26999Y24002D02*
X26897D01*
Y23926D01*
X26948Y23951D01*
X26973D01*
X26999Y23926D01*
Y23875D01*
X26973Y23849D01*
X26923D01*
X26897Y23875D01*
X27253Y23849D02*
Y24002D01*
X27329D01*
X27354Y23976D01*
Y23926D01*
X27329Y23900D01*
X27253D01*
X27304D02*
X27354Y23849D01*
X27507Y24002D02*
X27456Y23976D01*
X27405Y23926D01*
Y23875D01*
X27431Y23849D01*
X27481D01*
X27507Y23875D01*
Y23900D01*
X27481Y23926D01*
X27405D01*
X27405Y22071D02*
Y22224D01*
X27482D01*
X27507Y22198D01*
Y22148D01*
X27482Y22122D01*
X27405D01*
X27456D02*
X27507Y22071D01*
X27558Y22224D02*
X27659D01*
Y22198D01*
X27558Y22097D01*
Y22071D01*
X28066Y23240D02*
Y23392D01*
X28142D01*
X28167Y23367D01*
Y23316D01*
X28142Y23291D01*
X28066D01*
X28117D02*
X28167Y23240D01*
X28218Y23367D02*
X28243Y23392D01*
X28294D01*
X28320Y23367D01*
Y23341D01*
X28294Y23316D01*
X28320Y23291D01*
Y23265D01*
X28294Y23240D01*
X28243D01*
X28218Y23265D01*
Y23291D01*
X28243Y23316D01*
X28218Y23341D01*
Y23367D01*
X28243Y23316D02*
X28294D01*
X28388Y18703D02*
Y18856D01*
X28464D01*
X28490Y18830D01*
Y18779D01*
X28464Y18754D01*
X28388D01*
X28541Y18830D02*
X28566Y18856D01*
X28617D01*
X28642Y18830D01*
Y18805D01*
X28617Y18779D01*
X28591D01*
X28617D01*
X28642Y18754D01*
Y18729D01*
X28617Y18703D01*
X28566D01*
X28541Y18729D01*
D41*
X28727Y24062D02*
Y23978D01*
X28791D01*
X28770Y24020D01*
Y24041D01*
X28791Y24062D01*
X28833D01*
X28854Y24041D01*
Y23999D01*
X28833Y23978D01*
X29108Y24028D02*
Y24071D01*
Y24050D01*
X28981D01*
X29003Y24028D01*
X29108Y25209D02*
X28981D01*
X29045Y25146D01*
Y25231D01*
X28749Y25146D02*
X28727Y25167D01*
Y25209D01*
X28749Y25231D01*
X28770D01*
X28791Y25209D01*
X28812Y25231D01*
X28833D01*
X28854Y25209D01*
Y25167D01*
X28833Y25146D01*
X28812D01*
X28791Y25167D01*
X28770Y25146D01*
X28749D01*
X28791Y25167D02*
Y25209D01*
D42*
X22797Y23475D02*
X22847D01*
X22822D01*
Y23625D01*
X22797Y23600D01*
Y23844D02*
X22822Y23869D01*
X22872D01*
X22897Y23844D01*
Y23819D01*
X22872Y23794D01*
X22847D01*
X22872D01*
X22897Y23769D01*
Y23744D01*
X22872Y23720D01*
X22822D01*
X22797Y23744D01*
X22086Y23844D02*
X22111Y23869D01*
X22161D01*
X22186Y23844D01*
Y23819D01*
X22161Y23794D01*
X22136D01*
X22161D01*
X22186Y23769D01*
Y23744D01*
X22161Y23720D01*
X22111D01*
X22086Y23744D01*
Y23475D02*
X22136D01*
X22111D01*
Y23625D01*
X22086Y23600D01*
X23325Y24232D02*
X23425D01*
X23375Y24282D02*
Y24182D01*
X23178Y23216D02*
X23278D01*
X23228Y23266D02*
Y23166D01*
X23178Y25248D02*
X23278D01*
X23228Y25298D02*
Y25198D01*
M02*
