%FSLAX42Y42*%
%MOMM*%
G71*
G01*
G75*
G04 Layer_Color=32768*
%ADD10R,1.10X1.40*%
%ADD11O,2.20X0.60*%
%ADD12R,1.10X1.70*%
%ADD13R,1.40X6.70*%
%ADD14C,0.64*%
%ADD15C,0.55*%
%ADD16C,0.30*%
%ADD17C,3.81*%
%ADD18R,3.81X3.81*%
%ADD19R,1.85X1.85*%
%ADD20C,1.85*%
%ADD21C,1.50*%
%ADD22R,1.50X1.50*%
%ADD23R,1.50X1.50*%
%ADD24O,2.00X1.00*%
%ADD25O,2.00X1.00*%
%ADD26C,1.52*%
%ADD27C,3.80*%
%ADD28R,1.60X1.60*%
%ADD29C,1.60*%
%ADD30C,1.50*%
%ADD31R,1.50X1.50*%
%ADD32R,1.50X1.50*%
%ADD33O,2.00X4.50*%
%ADD34O,2.00X4.00*%
%ADD35O,4.00X2.00*%
%ADD36C,1.27*%
%ADD37C,0.25*%
%ADD38C,0.20*%
%ADD39C,0.60*%
%ADD40C,0.25*%
%ADD41C,0.20*%
%ADD42C,0.15*%
%ADD43R,1.30X1.60*%
%ADD44O,2.40X0.80*%
%ADD45R,1.30X1.90*%
%ADD46R,1.60X6.90*%
%ADD47C,4.01*%
%ADD48R,4.01X4.01*%
%ADD49R,2.05X2.05*%
%ADD50C,2.05*%
%ADD51C,1.70*%
%ADD52R,1.70X1.70*%
%ADD53R,1.70X1.70*%
%ADD54O,2.20X1.20*%
%ADD55O,2.20X1.20*%
%ADD56C,1.73*%
%ADD57C,4.00*%
%ADD58R,1.80X1.80*%
%ADD59C,1.80*%
%ADD60C,1.70*%
%ADD61R,1.70X1.70*%
%ADD62R,1.70X1.70*%
%ADD63O,2.20X4.70*%
%ADD64O,2.20X4.20*%
%ADD65O,4.20X2.20*%
%ADD66C,1.47*%
%ADD67C,1.00*%
%ADD68C,0.03*%
%ADD69C,2.02*%
%ADD70C,0.10*%
D70*
X28753Y21845D02*
Y21945D01*
X28703Y21895D02*
X28803D01*
X28613Y21815D02*
X28893D01*
X28613Y21975D02*
X28893D01*
Y21815D02*
Y21975D01*
X28613Y21815D02*
Y21975D01*
X24943Y24791D02*
Y24891D01*
X24893Y24841D02*
X24993D01*
X24568Y24566D02*
X25318D01*
X24568Y25116D02*
X25318D01*
Y24566D02*
Y25116D01*
X24568Y24566D02*
Y25116D01*
X31598Y20930D02*
Y21030D01*
X31548Y20980D02*
X31648D01*
X31223Y20705D02*
X31973D01*
X31223Y21255D02*
X31973D01*
Y20705D02*
Y21255D01*
X31223Y20705D02*
Y21255D01*
X28045Y21800D02*
Y21990D01*
X28445Y21800D02*
Y21990D01*
X28045D02*
X28445D01*
X28045Y21800D02*
X28445D01*
X28195Y21895D02*
X28295D01*
X28245Y21845D02*
Y21945D01*
X25909Y20218D02*
X26009D01*
X25959Y20168D02*
Y20268D01*
X23009Y18244D02*
Y18434D01*
X22609Y18244D02*
Y18434D01*
Y18244D02*
X23009D01*
X22609Y18434D02*
X23009D01*
X22759Y18339D02*
X22859D01*
X22809Y18289D02*
Y18389D01*
X22316Y20964D02*
Y21154D01*
X21916Y20964D02*
Y21154D01*
Y20964D02*
X22316D01*
X21916Y21154D02*
X22316D01*
X22066Y21059D02*
X22166D01*
X22116Y21009D02*
Y21109D01*
X26724Y23578D02*
Y23768D01*
X27124Y23578D02*
Y23768D01*
X26724D02*
X27124D01*
X26724Y23578D02*
X27124D01*
X26874Y23673D02*
X26974D01*
X26924Y23623D02*
Y23723D01*
X27232Y23578D02*
Y23768D01*
X27632Y23578D02*
Y23768D01*
X27232D02*
X27632D01*
X27232Y23578D02*
X27632D01*
X27382Y23673D02*
X27482D01*
X27432Y23623D02*
Y23723D01*
X27384Y21800D02*
Y21990D01*
X27784Y21800D02*
Y21990D01*
X27384D02*
X27784D01*
X27384Y21800D02*
X27784D01*
X27534Y21895D02*
X27634D01*
X27584Y21845D02*
Y21945D01*
X28045Y22968D02*
Y23158D01*
X28445Y22968D02*
Y23158D01*
X28045D02*
X28445D01*
X28045Y22968D02*
X28445D01*
X28195Y23063D02*
X28295D01*
X28245Y23013D02*
Y23113D01*
X23195Y22871D02*
Y23561D01*
X23855Y22871D02*
Y23561D01*
X23195D02*
X23855D01*
X23195Y22871D02*
X23855D01*
X23475Y23216D02*
X23575D01*
X23525Y23166D02*
Y23266D01*
X23195Y24903D02*
Y25593D01*
X23855Y24903D02*
Y25593D01*
X23195D02*
X23855D01*
X23195Y24903D02*
X23855D01*
X23475Y25248D02*
X23575D01*
X23525Y25198D02*
Y25298D01*
X25565Y18259D02*
Y18419D01*
X25845Y18259D02*
Y18419D01*
X25565D02*
X25845D01*
X25565Y18259D02*
X25845D01*
X25655Y18339D02*
X25755D01*
X25705Y18289D02*
Y18389D01*
X24769Y21764D02*
Y21924D01*
X25049Y21764D02*
Y21924D01*
X24769D02*
X25049D01*
X24769Y21764D02*
X25049D01*
X24859Y21844D02*
X24959D01*
X24909Y21794D02*
Y21894D01*
X25006Y18259D02*
Y18419D01*
X25286Y18259D02*
Y18419D01*
X25006D02*
X25286D01*
X25006Y18259D02*
X25286D01*
X25096Y18339D02*
X25196D01*
X25146Y18289D02*
Y18389D01*
X26861Y18259D02*
Y18419D01*
X26581Y18259D02*
Y18419D01*
Y18259D02*
X26861D01*
X26581Y18419D02*
X26861D01*
X26671Y18339D02*
X26771D01*
X26721Y18289D02*
Y18389D01*
X27597Y18310D02*
Y18470D01*
X27877Y18310D02*
Y18470D01*
X27597D02*
X27877D01*
X27597Y18310D02*
X27877D01*
X27687Y18390D02*
X27787D01*
X27737Y18340D02*
Y18440D01*
X25845Y21764D02*
Y21924D01*
X25565Y21764D02*
Y21924D01*
Y21764D02*
X25845D01*
X25565Y21924D02*
X25845D01*
X25655Y21844D02*
X25755D01*
X25705Y21794D02*
Y21894D01*
X24764Y23644D02*
Y23804D01*
X25044Y23644D02*
Y23804D01*
X24764D02*
X25044D01*
X24764Y23644D02*
X25044D01*
X24854Y23724D02*
X24954D01*
X24904Y23674D02*
Y23774D01*
M02*
