M48
;Layer_Color=9474304
;FILE_FORMAT=4:4
METRIC,LZ
;TYPE=PLATED
T1F00S00C0.7112
T2F00S00C0.9000
T3F00S00C0.9200
T4F00S00C1.0000
T5F00S00C1.1000
T6F00S00C2.3000
T7F00S00C2.4638
T8F00S00C5.5880
%
T01
X02204974Y0177673
X02267458Y01731772
X02342134Y01775714
X0235331Y01866392
X02336038Y01923535
X02176272Y01974596
X0249555Y0190881
X02532888Y01781048
X02550668Y01779524
X02474214Y0172974
X02881884Y01796288
X02934208Y01833118
X02954135Y01953375
X02905252Y01982978
X03016758
X03113024Y01853946
X03157982Y0173863
X03090926Y01692656
X03208782Y0207899
Y02158746
X03169666Y0213487
X03118866Y02132838
X03093212Y02035302
X02883206Y02004973
X02830619Y0202819
X02815704Y02062924
X02798572Y02084578
X02780538Y02050288
X02853182Y02079244
X02868168Y02104243
X02905252Y02135378
X02897632Y02200148
X02879598Y02205482
X02906522Y0223774
X02948305Y02258695
X02940304Y02279904
X02966974Y02222246
X0303657Y02220214
X03093212Y023114
X02831338Y02329688
X028067Y02346452
X0281098Y022741
X02827528Y02290572
X0281432Y02238248
X0274494Y02173732
X02717038Y02148078
X0269494Y0216916
X02656332Y02198116
X026289Y02189226
X02592578Y02213864
X02614422Y02261863
X02585466Y02340102
X02674112Y0234696
X02756916Y02337562
X02497936Y0235458
X0247015Y0226695
X02520188Y022352
X02542794Y02187386
X02592578Y02135378
X0261112Y02137664
X02622296Y02113534
X02709164Y02054352
X02736342Y0198628
X02490978Y02056638
X02411462Y02046732
X02388616Y02189988
X02349754Y02144776
X02315435Y02132555
X02272792Y021844
X02285492Y02022348
X02226818Y02052193
X023114Y02348992
X02482936Y02414016
X02510282Y02444242
X02561082Y02467102
Y02417064
X02556256Y0256413
X02453132Y02540508
X02756408Y02409952
X02830068Y02393696
X02849118Y02479297
X02975864Y02450592
X03068574Y023876
T02
X02150872Y017526
Y01778
Y018034
Y018288
Y018542
Y018796
Y01978914
X0235458Y0194564
X0237998
X0240538
X0243078
X0245618
X0248158
X0250698
X0253238
X0255778
X0258318
X0260858
X0263398
X0265938
X0268478
X0271018
X0273558
X0276098
X0278638
X0281178
X0283718
X0284988Y0184912
Y0182372
X031242Y018288
Y01905
Y019558
X032004
Y01905
Y018288
Y020066
X0319532Y0221488
X032004Y0235712
X031242
X0299212Y023622
Y023368
Y023114
Y02286
Y022606
Y022352
Y022098
Y021844
X0311912Y0221488
X0314452
X0316992
X031242Y020066
X0283718Y0209804
X0281178
X0278638
X0276098
X0273558
X0271018
X0268478
X0265938
X0263398
X0260858
X0258318
X0255778
X0253238
X0250698
X0248158
X0245618
X0243078
X0240538
X0240792Y02159
X0243332
X0241808Y0224028
X0239268
X0248412Y0229616
X0250952
X0253492
X0259334Y0230886
X0261874
X0264414
X0266954
X0269494
X0272034
X0274574
X0277114
Y0223266
X0274574
X0272034
X0269494
X0266954
X0264414
X0261874
X0259334
X0236728Y0224028
X0234188
X0235458Y0209804
X0237998
X02150872Y02105914
Y02080514
Y02055114
Y02029714
Y02004314
X021844Y0235458
Y0236728
Y0237998
X0225552
Y0236728
Y0235458
X0234228Y0242316
X0239228
X0258826Y0243586
X0261366
X0263906
X0266446
X0268986
X0271526
X0274066
X0276606
Y0251206
X0274066
X0271526
X0268986
X0266446
X0263906
X0261366
X0258826
X0288036Y0249936
Y0247396
Y0244856
Y0242316
X0290576
Y0244856
Y0247396
Y0249936
X0299212Y024892
Y025146
Y024638
Y024384
Y02413
Y023876
X031242Y0243332
Y0248412
Y0253492
X032004
Y0248412
Y0243332
T03
X0226076Y0221762
X0228076
Y0224262
X0226076
T04
X022286Y0244428
X022486
X022706Y0248178
Y0250678
X022086Y0250428
Y0248428
T05
X0224536Y0188976
X0229616
X0259588Y018796
X0264668
T06
X0223366Y0216992
Y0229032
T07
X0225679Y0168148
X02306828
X02356612
X0240665
X02456434
X02506472
X02556256
X02606294
X02656078
X02706116
X027559
X02805938
X02855722
X0290576
X02955544
X03005582
X02356612Y0262636
X02306828
X0225679
X0240665
X02456434
X02506472
X02556256
X02606294
X0265684
X02706878
X02756662
X028067
X02857246
X02907284
X02957068
X03007106
T08
X0216916Y0167132
X0316484
X0216916Y0263652
X0316484
M30
