%FSLAX23Y23*%
%MOIN*%
G70*
G01*
G75*
G04 Layer_Color=16711935*
%ADD10R,0.118X0.276*%
%ADD11R,0.067X0.043*%
%ADD12R,0.039X0.051*%
%ADD13R,0.055X0.043*%
%ADD14O,0.061X0.010*%
%ADD15O,0.010X0.061*%
%ADD16R,0.043X0.055*%
%ADD17R,0.051X0.039*%
%ADD18R,0.413X0.331*%
%ADD19R,0.041X0.130*%
%ADD20R,0.041X0.150*%
%ADD21R,0.421X0.331*%
%ADD22R,0.059X0.024*%
%ADD23O,0.024X0.087*%
%ADD24C,0.020*%
%ADD25C,0.010*%
%ADD26C,0.012*%
%ADD27R,0.059X0.059*%
%ADD28C,0.059*%
%ADD29C,0.150*%
%ADD30R,0.150X0.150*%
%ADD31R,0.059X0.059*%
%ADD32C,0.051*%
%ADD33C,0.073*%
%ADD34R,0.073X0.073*%
%ADD35C,0.059*%
%ADD36O,0.079X0.157*%
%ADD37O,0.157X0.079*%
%ADD38O,0.177X0.079*%
%ADD39C,0.064*%
%ADD40C,0.130*%
%ADD41C,0.088*%
%ADD42C,0.060*%
%ADD43C,0.071*%
%ADD44R,0.071X0.071*%
%ADD45C,0.067*%
%ADD46R,0.067X0.067*%
%ADD47C,0.050*%
%ADD48C,0.008*%
%ADD49C,0.010*%
%ADD50C,0.024*%
%ADD51C,0.006*%
%ADD52R,0.126X0.284*%
%ADD53R,0.075X0.051*%
%ADD54R,0.047X0.059*%
%ADD55R,0.063X0.051*%
%ADD56O,0.069X0.018*%
%ADD57O,0.018X0.069*%
%ADD58R,0.051X0.063*%
%ADD59R,0.059X0.047*%
%ADD60R,0.421X0.339*%
%ADD61R,0.049X0.138*%
%ADD62R,0.049X0.158*%
%ADD63R,0.429X0.339*%
%ADD64R,0.067X0.032*%
%ADD65O,0.032X0.095*%
%ADD66R,0.067X0.067*%
%ADD67C,0.067*%
%ADD68C,0.158*%
%ADD69R,0.158X0.158*%
%ADD70R,0.067X0.067*%
%ADD71C,0.059*%
%ADD72C,0.081*%
%ADD73R,0.081X0.081*%
%ADD74C,0.067*%
%ADD75O,0.087X0.165*%
%ADD76O,0.165X0.087*%
%ADD77O,0.185X0.087*%
%ADD78C,0.072*%
%ADD79C,0.138*%
%ADD80C,0.096*%
%ADD81C,0.068*%
%ADD82C,0.079*%
%ADD83R,0.079X0.079*%
%ADD84C,0.075*%
%ADD85R,0.075X0.075*%
%ADD86C,0.058*%
D66*
X2380Y3080D02*
D03*
X3780Y1200D02*
D03*
X2900Y2640D02*
D03*
X2160Y1460D02*
D03*
X2380Y1200D02*
D03*
X3960Y1460D02*
D03*
D67*
X2380Y3180D02*
D03*
X3780Y1600D02*
D03*
Y1500D02*
D03*
Y1400D02*
D03*
Y1300D02*
D03*
X2900Y2540D02*
D03*
X2500Y2360D02*
D03*
X2160Y2160D02*
D03*
Y2060D02*
D03*
Y1960D02*
D03*
Y1860D02*
D03*
Y1760D02*
D03*
Y1660D02*
D03*
Y1560D02*
D03*
X2380Y1700D02*
D03*
Y1600D02*
D03*
Y1500D02*
D03*
Y1400D02*
D03*
Y1300D02*
D03*
X3060Y1200D02*
D03*
X2960D02*
D03*
X2860D02*
D03*
X2123Y3466D02*
D03*
Y3387D02*
D03*
X2359Y3545D02*
D03*
X2281D02*
D03*
X3380Y1200D02*
D03*
X3280D02*
D03*
X3180D02*
D03*
X3420Y2360D02*
D03*
X3320D02*
D03*
X3220D02*
D03*
X3120D02*
D03*
X3020D02*
D03*
X2920D02*
D03*
X2820D02*
D03*
X3875Y3170D02*
D03*
X3775D02*
D03*
X3825Y3070D02*
D03*
X3725D02*
D03*
X3675Y3170D02*
D03*
X3925Y3070D02*
D03*
X3625D02*
D03*
X3960Y1960D02*
D03*
Y1860D02*
D03*
Y1760D02*
D03*
Y1660D02*
D03*
Y1560D02*
D03*
X2662Y3320D02*
D03*
X2602Y2880D02*
D03*
D68*
X2180Y2888D02*
D03*
Y2692D02*
D03*
D69*
Y3085D02*
D03*
D70*
X2600Y2360D02*
D03*
X2760Y1200D02*
D03*
X3480D02*
D03*
X2720Y2360D02*
D03*
X3975Y3170D02*
D03*
X2858Y3320D02*
D03*
X2798Y2880D02*
D03*
D71*
X3320Y1339D02*
D03*
Y1461D02*
D03*
D72*
X2380Y2140D02*
D03*
X3560Y1900D02*
D03*
D73*
X2380Y2340D02*
D03*
X3560Y1700D02*
D03*
D74*
X2271Y3301D02*
D03*
X2369D02*
D03*
D75*
X2123Y3427D02*
D03*
D76*
X2320Y3545D02*
D03*
D77*
Y3301D02*
D03*
D78*
X3551Y3553D02*
D03*
X3651Y3620D02*
D03*
X3949Y3553D02*
D03*
X4049Y3620D02*
D03*
D79*
X3575Y3420D02*
D03*
X4025D02*
D03*
D80*
X4110Y3290D02*
D03*
X3490D02*
D03*
D81*
X4015Y1225D02*
D03*
Y2420D02*
D03*
X2205D02*
D03*
Y1225D02*
D03*
D82*
X3280Y3400D02*
D03*
X3180D02*
D03*
D83*
X3080D02*
D03*
D84*
X3080Y2900D02*
D03*
X3180D02*
D03*
D85*
X3280D02*
D03*
D86*
X3724Y2460D02*
D03*
X3811Y2457D02*
D03*
X3841Y2521D02*
D03*
X3752Y2528D02*
D03*
X3998Y2643D02*
D03*
X3487Y2525D02*
D03*
X3867Y2919D02*
D03*
X4028Y2922D02*
D03*
X3840Y3410D02*
D03*
X3752Y2609D02*
D03*
X3660Y2414D02*
D03*
X3632Y2240D02*
D03*
X3460Y2267D02*
D03*
X4087Y3037D02*
D03*
X2910Y1284D02*
D03*
X3055Y1457D02*
D03*
X2498Y3004D02*
D03*
X2570Y3474D02*
D03*
X3120Y1700D02*
D03*
X3015Y1685D02*
D03*
X3405Y1695D02*
D03*
X3445Y1845D02*
D03*
X3630Y1155D02*
D03*
X2605Y1330D02*
D03*
X2450Y1790D02*
D03*
X2665Y1865D02*
D03*
X2480Y1155D02*
D03*
X2560Y1600D02*
D03*
X3070Y1395D02*
D03*
X3110Y1775D02*
D03*
X3000Y1785D02*
D03*
X3140Y2245D02*
D03*
X3540Y2050D02*
D03*
X3435Y1940D02*
D03*
X3385Y2115D02*
D03*
X3775Y2070D02*
D03*
M02*
