%FSLAX23Y23*%
%MOIN*%
G70*
G01*
G75*
G04 Layer_Color=32768*
%ADD10R,0.118X0.276*%
%ADD11R,0.067X0.043*%
%ADD12R,0.039X0.051*%
%ADD13R,0.055X0.043*%
%ADD14O,0.061X0.010*%
%ADD15O,0.010X0.061*%
%ADD16R,0.043X0.055*%
%ADD17R,0.051X0.039*%
%ADD18R,0.413X0.331*%
%ADD19R,0.041X0.130*%
%ADD20R,0.041X0.150*%
%ADD21R,0.421X0.331*%
%ADD22R,0.059X0.024*%
%ADD23O,0.024X0.087*%
%ADD24C,0.020*%
%ADD25C,0.010*%
%ADD26C,0.012*%
%ADD27R,0.059X0.059*%
%ADD28C,0.059*%
%ADD29C,0.150*%
%ADD30R,0.150X0.150*%
%ADD31R,0.059X0.059*%
%ADD32C,0.051*%
%ADD33C,0.073*%
%ADD34R,0.073X0.073*%
%ADD35C,0.059*%
%ADD36O,0.079X0.157*%
%ADD37O,0.157X0.079*%
%ADD38O,0.177X0.079*%
%ADD39C,0.064*%
%ADD40C,0.130*%
%ADD41C,0.088*%
%ADD42C,0.060*%
%ADD43C,0.071*%
%ADD44R,0.071X0.071*%
%ADD45C,0.067*%
%ADD46R,0.067X0.067*%
%ADD47C,0.050*%
%ADD48C,0.008*%
%ADD49C,0.010*%
%ADD50C,0.024*%
%ADD51C,0.006*%
%ADD52R,0.126X0.284*%
%ADD53R,0.075X0.051*%
%ADD54R,0.047X0.059*%
%ADD55R,0.063X0.051*%
%ADD56O,0.069X0.018*%
%ADD57O,0.018X0.069*%
%ADD58R,0.051X0.063*%
%ADD59R,0.059X0.047*%
%ADD60R,0.421X0.339*%
%ADD61R,0.049X0.138*%
%ADD62R,0.049X0.158*%
%ADD63R,0.429X0.339*%
%ADD64R,0.067X0.032*%
%ADD65O,0.032X0.095*%
%ADD66R,0.067X0.067*%
%ADD67C,0.067*%
%ADD68C,0.158*%
%ADD69R,0.158X0.158*%
%ADD70R,0.067X0.067*%
%ADD71C,0.059*%
%ADD72C,0.081*%
%ADD73R,0.081X0.081*%
%ADD74C,0.067*%
%ADD75O,0.087X0.165*%
%ADD76O,0.165X0.087*%
%ADD77O,0.185X0.087*%
%ADD78C,0.072*%
%ADD79C,0.138*%
%ADD80C,0.096*%
%ADD81C,0.068*%
%ADD82C,0.079*%
%ADD83R,0.079X0.079*%
%ADD84C,0.075*%
%ADD85R,0.075X0.075*%
%ADD86C,0.058*%
%ADD87C,0.039*%
%ADD88C,0.001*%
%ADD89C,0.079*%
%ADD90C,0.004*%
D90*
X2883Y3159D02*
X2957D01*
X2883Y3001D02*
X2957D01*
Y3159D01*
X2883Y3001D02*
Y3159D01*
X2920Y3060D02*
Y3100D01*
X2900Y3080D02*
X2940D01*
X2483Y2081D02*
X2557D01*
X2483Y2239D02*
X2557D01*
X2483Y2081D02*
Y2239D01*
X2557Y2081D02*
Y2239D01*
X2520Y2140D02*
Y2180D01*
X2500Y2160D02*
X2540D01*
X3695Y2830D02*
Y2870D01*
X3675Y2850D02*
X3715D01*
X3640Y2820D02*
X3750D01*
X3640Y2880D02*
X3750D01*
Y2820D02*
Y2880D01*
X3640Y2820D02*
Y2880D01*
X3780Y3420D02*
X3820D01*
X3800Y3400D02*
Y3440D01*
X3264Y2175D02*
X3326D01*
X3264Y2285D02*
X3326D01*
X3264Y2175D02*
Y2285D01*
X3326Y2175D02*
Y2285D01*
X3295Y2210D02*
Y2250D01*
X3275Y2230D02*
X3315D01*
X2808Y1548D02*
Y2052D01*
X3312Y1548D02*
Y2052D01*
X2808D02*
X3312D01*
X2808Y1548D02*
X3312D01*
X3040Y1800D02*
X3080D01*
X3060Y1780D02*
Y1820D01*
X3600Y1300D02*
Y1340D01*
X3580Y1320D02*
X3620D01*
X3545Y1351D02*
X3655D01*
X3545Y1289D02*
X3655D01*
X3545D02*
Y1351D01*
X3655Y1289D02*
Y1351D01*
X3600Y1420D02*
Y1460D01*
X3580Y1440D02*
X3620D01*
X3545Y1410D02*
X3655D01*
X3545Y1470D02*
X3655D01*
Y1410D02*
Y1470D01*
X3545Y1410D02*
Y1470D01*
X3354Y2175D02*
X3416D01*
X3354Y2285D02*
X3416D01*
X3354Y2175D02*
Y2285D01*
X3416Y2175D02*
Y2285D01*
X3385Y2210D02*
Y2250D01*
X3365Y2230D02*
X3405D01*
X3185Y3129D02*
Y3191D01*
X3295Y3129D02*
Y3191D01*
X3185D02*
X3295D01*
X3185Y3129D02*
X3295D01*
X3220Y3160D02*
X3260D01*
X3240Y3140D02*
Y3180D01*
X3424Y1360D02*
X3486D01*
X3424Y1470D02*
X3486D01*
X3424Y1360D02*
Y1470D01*
X3486Y1360D02*
Y1470D01*
X3455Y1395D02*
Y1435D01*
X3435Y1415D02*
X3475D01*
X3154Y1355D02*
X3216D01*
X3154Y1465D02*
X3216D01*
X3154Y1355D02*
Y1465D01*
X3216Y1355D02*
Y1465D01*
X3185Y1390D02*
Y1430D01*
X3165Y1410D02*
X3205D01*
X2529Y3175D02*
X2591D01*
X2529Y3065D02*
X2591D01*
Y3175D01*
X2529Y3065D02*
Y3175D01*
X2560Y3100D02*
Y3140D01*
X2540Y3120D02*
X2580D01*
X2860Y1410D02*
X2900D01*
X2880Y1390D02*
Y1430D01*
X2911Y1355D02*
Y1465D01*
X2849Y1355D02*
Y1465D01*
X2911D01*
X2849Y1355D02*
X2911D01*
X2770Y1410D02*
X2810D01*
X2790Y1390D02*
Y1430D01*
X2821Y1355D02*
Y1465D01*
X2759Y1355D02*
Y1465D01*
X2821D01*
X2759Y1355D02*
X2821D01*
X3700Y2064D02*
Y2126D01*
X3590Y2064D02*
Y2126D01*
Y2064D02*
X3700D01*
X3590Y2126D02*
X3700D01*
X3625Y2095D02*
X3665D01*
X3645Y2075D02*
Y2115D01*
X2489Y1815D02*
X2551D01*
X2489Y1705D02*
X2551D01*
Y1815D01*
X2489Y1705D02*
Y1815D01*
X2520Y1740D02*
Y1780D01*
X2500Y1760D02*
X2540D01*
X2580D02*
X2620D01*
X2600Y1740D02*
Y1780D01*
X2569Y1705D02*
Y1815D01*
X2631Y1705D02*
Y1815D01*
X2569Y1705D02*
X2631D01*
X2569Y1815D02*
X2631D01*
X3725Y1829D02*
Y1891D01*
X3835Y1829D02*
Y1891D01*
X3725D02*
X3835D01*
X3725Y1829D02*
X3835D01*
X3760Y1860D02*
X3800D01*
X3780Y1840D02*
Y1880D01*
X3835Y1669D02*
Y1731D01*
X3725Y1669D02*
Y1731D01*
Y1669D02*
X3835D01*
X3725Y1731D02*
X3835D01*
X3760Y1700D02*
X3800D01*
X3780Y1680D02*
Y1720D01*
X3700Y2144D02*
Y2206D01*
X3590Y2144D02*
Y2206D01*
Y2144D02*
X3700D01*
X3590Y2206D02*
X3700D01*
X3625Y2175D02*
X3665D01*
X3645Y2155D02*
Y2195D01*
X3725Y2349D02*
Y2411D01*
X3835Y2349D02*
Y2411D01*
X3725D02*
X3835D01*
X3725Y2349D02*
X3835D01*
X3760Y2380D02*
X3800D01*
X3780Y2360D02*
Y2400D01*
X3780Y2819D02*
Y2881D01*
X3890Y2819D02*
Y2881D01*
X3780D02*
X3890D01*
X3780Y2819D02*
X3890D01*
X3815Y2850D02*
X3855D01*
X3835Y2830D02*
Y2870D01*
X3174Y2175D02*
X3236D01*
X3174Y2285D02*
X3236D01*
X3174Y2175D02*
Y2285D01*
X3236Y2175D02*
Y2285D01*
X3205Y2210D02*
Y2250D01*
X3185Y2230D02*
X3225D01*
X3100Y2140D02*
Y2180D01*
X3080Y2160D02*
X3120D01*
X3045Y2190D02*
X3155D01*
X3045Y2130D02*
X3155D01*
X3045D02*
Y2190D01*
X3155Y2130D02*
Y2190D01*
X3655Y2710D02*
X3695D01*
X3675Y2690D02*
Y2730D01*
X3645Y2655D02*
Y2765D01*
X3705Y2655D02*
Y2765D01*
X3645Y2655D02*
X3705D01*
X3645Y2765D02*
X3705D01*
X3735Y2710D02*
X3775D01*
X3755Y2690D02*
Y2730D01*
X3725Y2655D02*
Y2765D01*
X3785Y2655D02*
Y2765D01*
X3725Y2655D02*
X3785D01*
X3725Y2765D02*
X3785D01*
X3815Y2710D02*
X3855D01*
X3835Y2690D02*
Y2730D01*
X3805Y2655D02*
Y2765D01*
X3865Y2655D02*
Y2765D01*
X3805Y2655D02*
X3865D01*
X3805Y2765D02*
X3865D01*
X3895Y2710D02*
X3935D01*
X3915Y2690D02*
Y2730D01*
X3885Y2655D02*
Y2765D01*
X3945Y2655D02*
Y2765D01*
X3885Y2655D02*
X3945D01*
X3885Y2765D02*
X3945D01*
X4075Y2810D02*
X4115D01*
X4095Y2790D02*
Y2830D01*
X4125Y2755D02*
Y2865D01*
X4065Y2755D02*
Y2865D01*
X4125D01*
X4065Y2755D02*
X4125D01*
X3555Y2830D02*
X3595D01*
X3575Y2810D02*
Y2850D01*
X3545Y2775D02*
Y2885D01*
X3605Y2775D02*
Y2885D01*
X3545Y2775D02*
X3605D01*
X3545Y2885D02*
X3605D01*
X3160Y3520D02*
X3200D01*
X3180Y3500D02*
Y3540D01*
X3397Y3207D02*
Y3833D01*
X2963Y3207D02*
Y3833D01*
X3397D01*
X2963Y3207D02*
X3397D01*
X2960Y3113D02*
X3400D01*
X2960Y2447D02*
X3400D01*
Y3113D01*
X2960Y2447D02*
Y3113D01*
X3180Y2760D02*
Y2800D01*
X3160Y2780D02*
X3200D01*
X2580Y1180D02*
Y1220D01*
X2560Y1200D02*
X2600D01*
X2503Y1131D02*
X2657D01*
X2503Y1269D02*
X2657D01*
Y1131D02*
Y1269D01*
X2503Y1131D02*
Y1269D01*
X2400Y2640D02*
X2440D01*
X2420Y2620D02*
Y2660D01*
X2528Y2492D02*
Y2788D01*
X2312Y2492D02*
Y2788D01*
X2528D01*
X2312Y2492D02*
X2528D01*
X3180Y2880D02*
Y2920D01*
X3160Y2900D02*
X3200D01*
M02*
