%FSLAX23Y23*%
%MOIN*%
G70*
G01*
G75*
G04 Layer_Color=16711935*
%ADD10R,0.118X0.276*%
%ADD11R,0.067X0.043*%
%ADD12R,0.039X0.051*%
%ADD13R,0.055X0.043*%
%ADD14O,0.061X0.010*%
%ADD15O,0.010X0.061*%
%ADD16R,0.043X0.055*%
%ADD17R,0.051X0.039*%
%ADD18R,0.413X0.331*%
%ADD19R,0.041X0.130*%
%ADD20R,0.041X0.150*%
%ADD21R,0.421X0.331*%
%ADD22R,0.059X0.024*%
%ADD23O,0.024X0.087*%
%ADD24C,0.020*%
%ADD25C,0.010*%
%ADD26C,0.012*%
%ADD27R,0.059X0.059*%
%ADD28C,0.059*%
%ADD29C,0.150*%
%ADD30R,0.150X0.150*%
%ADD31R,0.059X0.059*%
%ADD32C,0.051*%
%ADD33C,0.073*%
%ADD34R,0.073X0.073*%
%ADD35C,0.059*%
%ADD36O,0.079X0.157*%
%ADD37O,0.157X0.079*%
%ADD38O,0.177X0.079*%
%ADD39C,0.064*%
%ADD40C,0.130*%
%ADD41C,0.088*%
%ADD42C,0.060*%
%ADD43C,0.071*%
%ADD44R,0.071X0.071*%
%ADD45C,0.067*%
%ADD46R,0.067X0.067*%
%ADD47C,0.050*%
%ADD48C,0.008*%
%ADD49C,0.010*%
%ADD50C,0.024*%
%ADD51C,0.006*%
%ADD52R,0.126X0.284*%
%ADD53R,0.075X0.051*%
%ADD54R,0.047X0.059*%
%ADD55R,0.063X0.051*%
%ADD56O,0.069X0.018*%
%ADD57O,0.018X0.069*%
%ADD58R,0.051X0.063*%
%ADD59R,0.059X0.047*%
%ADD60R,0.421X0.339*%
%ADD61R,0.049X0.138*%
%ADD62R,0.049X0.158*%
%ADD63R,0.429X0.339*%
%ADD64R,0.067X0.032*%
%ADD65O,0.032X0.095*%
%ADD66R,0.067X0.067*%
%ADD67C,0.067*%
%ADD68C,0.158*%
%ADD69R,0.158X0.158*%
%ADD70R,0.067X0.067*%
%ADD71C,0.059*%
%ADD72C,0.081*%
%ADD73R,0.081X0.081*%
%ADD74C,0.067*%
%ADD75O,0.087X0.165*%
%ADD76O,0.165X0.087*%
%ADD77O,0.185X0.087*%
%ADD78C,0.072*%
%ADD79C,0.138*%
%ADD80C,0.096*%
%ADD81C,0.068*%
%ADD82C,0.079*%
%ADD83R,0.079X0.079*%
%ADD84C,0.075*%
%ADD85R,0.075X0.075*%
%ADD86C,0.058*%
%ADD87C,0.039*%
%ADD88C,0.001*%
D87*
X2271Y3301D02*
X2369D01*
X2123Y3387D02*
Y3466D01*
X2281Y3545D02*
X2359D01*
D88*
X2559Y3829D02*
X2567D01*
X2571Y3825D01*
X2567Y3821D01*
X2559D01*
X2565D01*
Y3829D01*
X2559Y3817D02*
Y3813D01*
Y3815D01*
X2571D01*
Y3817D01*
X2559Y3801D02*
Y3805D01*
X2561Y3807D01*
X2565D01*
X2567Y3805D01*
Y3801D01*
X2565Y3799D01*
X2563D01*
Y3807D01*
X2567Y3795D02*
X2559D01*
X2563D01*
X2565Y3793D01*
X2567Y3791D01*
Y3789D01*
X2569Y3782D02*
X2567D01*
Y3783D01*
Y3780D01*
Y3782D01*
X2561D01*
X2559Y3780D01*
Y3762D02*
X2571D01*
Y3756D01*
X2569Y3754D01*
X2565D01*
X2563Y3756D01*
Y3762D01*
X2569Y3742D02*
X2571Y3744D01*
Y3748D01*
X2569Y3750D01*
X2561D01*
X2559Y3748D01*
Y3744D01*
X2561Y3742D01*
X2571Y3738D02*
X2559D01*
Y3732D01*
X2561Y3730D01*
X2563D01*
X2565Y3732D01*
Y3738D01*
Y3732D01*
X2567Y3730D01*
X2569D01*
X2571Y3732D01*
Y3738D01*
X2559Y3713D02*
X2569D01*
X2565D01*
Y3715D01*
Y3711D01*
Y3713D01*
X2569D01*
X2571Y3711D01*
X2567Y3703D02*
Y3699D01*
X2565Y3697D01*
X2559D01*
Y3703D01*
X2561Y3705D01*
X2563Y3703D01*
Y3697D01*
X2571Y3693D02*
X2559D01*
Y3687D01*
X2561Y3685D01*
X2563D01*
X2565D01*
X2567Y3687D01*
Y3693D01*
X2569Y3667D02*
X2567D01*
Y3669D01*
Y3665D01*
Y3667D01*
X2561D01*
X2559Y3665D01*
Y3658D02*
Y3654D01*
X2561Y3652D01*
X2565D01*
X2567Y3654D01*
Y3658D01*
X2565Y3660D01*
X2561D01*
X2559Y3658D01*
Y3636D02*
Y3630D01*
X2561Y3628D01*
X2563Y3630D01*
Y3634D01*
X2565Y3636D01*
X2567Y3634D01*
Y3628D01*
X2559Y3624D02*
Y3620D01*
Y3622D01*
X2571D01*
Y3624D01*
X2559Y3612D02*
Y3608D01*
X2561Y3606D01*
X2565D01*
X2567Y3608D01*
Y3612D01*
X2565Y3614D01*
X2561D01*
X2559Y3612D01*
X2569Y3600D02*
X2567D01*
Y3602D01*
Y3599D01*
Y3600D01*
X2561D01*
X2559Y3599D01*
X2571Y3573D02*
X2559D01*
Y3579D01*
X2561Y3581D01*
X2565D01*
X2567Y3579D01*
Y3573D01*
X2559Y3563D02*
Y3567D01*
X2561Y3569D01*
X2565D01*
X2567Y3567D01*
Y3563D01*
X2565Y3561D01*
X2563D01*
Y3569D01*
X2569Y3555D02*
X2567D01*
Y3557D01*
Y3553D01*
Y3555D01*
X2561D01*
X2559Y3553D01*
X2567Y3545D02*
Y3541D01*
X2565Y3539D01*
X2559D01*
Y3545D01*
X2561Y3547D01*
X2563Y3545D01*
Y3539D01*
X2559Y3536D02*
Y3532D01*
Y3534D01*
X2567D01*
Y3536D01*
X2559Y3526D02*
Y3522D01*
Y3524D01*
X2571D01*
Y3526D01*
X2559Y3516D02*
Y3510D01*
X2561Y3508D01*
X2563Y3510D01*
Y3514D01*
X2565Y3516D01*
X2567Y3514D01*
Y3508D01*
X2579Y3829D02*
X2586D01*
X2590Y3825D01*
X2586Y3821D01*
X2579D01*
X2584D01*
Y3829D01*
X2579Y3817D02*
Y3811D01*
X2580Y3809D01*
X2582Y3811D01*
Y3815D01*
X2584Y3817D01*
X2586Y3815D01*
Y3809D01*
X2579Y3805D02*
Y3799D01*
X2580Y3797D01*
X2582Y3799D01*
Y3803D01*
X2584Y3805D01*
X2586Y3803D01*
Y3797D01*
X2579Y3793D02*
Y3789D01*
Y3791D01*
X2586D01*
Y3793D01*
X2575Y3780D02*
Y3778D01*
X2577Y3776D01*
X2586D01*
Y3782D01*
X2584Y3783D01*
X2580D01*
X2579Y3782D01*
Y3776D01*
Y3772D02*
X2586D01*
Y3766D01*
X2584Y3764D01*
X2579D01*
Y3748D02*
X2590D01*
X2582D02*
X2586Y3742D01*
X2582Y3748D02*
X2579Y3742D01*
Y3730D02*
Y3734D01*
X2580Y3736D01*
X2584D01*
X2586Y3734D01*
Y3730D01*
X2584Y3728D01*
X2582D01*
Y3736D01*
X2579Y3719D02*
Y3722D01*
X2580Y3724D01*
X2584D01*
X2586Y3722D01*
Y3719D01*
X2584Y3717D01*
X2582D01*
Y3724D01*
X2575Y3713D02*
X2586D01*
Y3707D01*
X2584Y3705D01*
X2580D01*
X2579Y3707D01*
Y3713D01*
X2584Y3701D02*
Y3693D01*
X2579Y3687D02*
Y3683D01*
X2580Y3681D01*
X2584D01*
X2586Y3683D01*
Y3687D01*
X2584Y3689D01*
X2580D01*
X2579Y3687D01*
X2586Y3677D02*
X2580D01*
X2579Y3675D01*
Y3669D01*
X2586D01*
X2588Y3663D02*
X2586D01*
Y3665D01*
Y3661D01*
Y3663D01*
X2580D01*
X2579Y3661D01*
X2586Y3642D02*
Y3638D01*
X2584Y3636D01*
X2579D01*
Y3642D01*
X2580Y3644D01*
X2582Y3642D01*
Y3636D01*
X2586Y3632D02*
X2579D01*
X2582D01*
X2584Y3630D01*
X2586Y3628D01*
Y3626D01*
X2579Y3614D02*
Y3618D01*
X2580Y3620D01*
X2584D01*
X2586Y3618D01*
Y3614D01*
X2584Y3612D01*
X2582D01*
Y3620D01*
X2586Y3606D02*
Y3602D01*
X2584Y3600D01*
X2579D01*
Y3606D01*
X2580Y3608D01*
X2582Y3606D01*
Y3600D01*
X2588Y3583D02*
X2586D01*
Y3585D01*
Y3581D01*
Y3583D01*
X2580D01*
X2579Y3581D01*
Y3573D02*
Y3569D01*
X2580Y3567D01*
X2584D01*
X2586Y3569D01*
Y3573D01*
X2584Y3575D01*
X2580D01*
X2579Y3573D01*
Y3551D02*
Y3545D01*
X2580Y3543D01*
X2582Y3545D01*
Y3549D01*
X2584Y3551D01*
X2586Y3549D01*
Y3543D01*
X2579Y3539D02*
Y3536D01*
Y3537D01*
X2590D01*
Y3539D01*
X2579Y3528D02*
Y3524D01*
X2580Y3522D01*
X2584D01*
X2586Y3524D01*
Y3528D01*
X2584Y3530D01*
X2580D01*
X2579Y3528D01*
X2588Y3516D02*
X2586D01*
Y3518D01*
Y3514D01*
Y3516D01*
X2580D01*
X2579Y3514D01*
X2539Y3829D02*
X2551D01*
X2547Y3825D01*
X2551Y3821D01*
X2539D01*
Y3811D02*
Y3815D01*
X2541Y3817D01*
X2545D01*
X2547Y3815D01*
Y3811D01*
X2545Y3809D01*
X2543D01*
Y3817D01*
X2547Y3797D02*
Y3803D01*
X2545Y3805D01*
X2541D01*
X2539Y3803D01*
Y3797D01*
X2551Y3793D02*
X2539D01*
X2545D01*
X2547Y3791D01*
Y3787D01*
X2545Y3785D01*
X2539D01*
Y3770D02*
Y3766D01*
Y3768D01*
X2551D01*
X2549Y3770D01*
X2545Y3748D02*
Y3740D01*
X2549Y3717D02*
X2551Y3719D01*
Y3722D01*
X2549Y3724D01*
X2547D01*
X2545Y3722D01*
Y3719D01*
X2543Y3717D01*
X2541D01*
X2539Y3719D01*
Y3722D01*
X2541Y3724D01*
X2539Y3713D02*
Y3709D01*
Y3711D01*
X2551D01*
Y3713D01*
X2539Y3701D02*
Y3697D01*
X2541Y3695D01*
X2545D01*
X2547Y3697D01*
Y3701D01*
X2545Y3703D01*
X2541D01*
X2539Y3701D01*
X2549Y3689D02*
X2547D01*
Y3691D01*
Y3687D01*
Y3689D01*
X2541D01*
X2539Y3687D01*
X2547Y3661D02*
Y3667D01*
X2545Y3669D01*
X2541D01*
X2539Y3667D01*
Y3661D01*
X2547Y3658D02*
X2541D01*
X2539Y3656D01*
Y3650D01*
X2547D01*
X2549Y3644D02*
X2547D01*
Y3646D01*
Y3642D01*
Y3644D01*
X2541D01*
X2539Y3642D01*
X2545Y3636D02*
Y3628D01*
X2539Y3622D02*
Y3618D01*
X2541Y3616D01*
X2545D01*
X2547Y3618D01*
Y3622D01*
X2545Y3624D01*
X2541D01*
X2539Y3622D01*
X2547Y3612D02*
X2541D01*
X2539Y3610D01*
Y3604D01*
X2547D01*
X2549Y3599D02*
X2547D01*
Y3600D01*
Y3597D01*
Y3599D01*
X2541D01*
X2539Y3597D01*
X2519Y3829D02*
X2531D01*
X2527Y3825D01*
X2531Y3821D01*
X2519D01*
Y3811D02*
Y3815D01*
X2521Y3817D01*
X2525D01*
X2527Y3815D01*
Y3811D01*
X2525Y3809D01*
X2523D01*
Y3817D01*
X2527Y3797D02*
Y3803D01*
X2525Y3805D01*
X2521D01*
X2519Y3803D01*
Y3797D01*
X2531Y3793D02*
X2519D01*
X2525D01*
X2527Y3791D01*
Y3787D01*
X2525Y3785D01*
X2519D01*
Y3762D02*
Y3770D01*
X2527Y3762D01*
X2529D01*
X2531Y3764D01*
Y3768D01*
X2529Y3770D01*
X2525Y3746D02*
Y3738D01*
X2529Y3715D02*
X2531Y3717D01*
Y3721D01*
X2529Y3722D01*
X2521D01*
X2519Y3721D01*
Y3717D01*
X2521Y3715D01*
X2519Y3711D02*
Y3707D01*
Y3709D01*
X2531D01*
Y3711D01*
X2519Y3695D02*
Y3699D01*
X2521Y3701D01*
X2525D01*
X2527Y3699D01*
Y3695D01*
X2525Y3693D01*
X2523D01*
Y3701D01*
X2527Y3687D02*
Y3683D01*
X2525Y3681D01*
X2519D01*
Y3687D01*
X2521Y3689D01*
X2523Y3687D01*
Y3681D01*
X2527Y3677D02*
X2519D01*
X2523D01*
X2525Y3675D01*
X2527Y3673D01*
Y3671D01*
Y3663D02*
Y3660D01*
X2525Y3658D01*
X2519D01*
Y3663D01*
X2521Y3665D01*
X2523Y3663D01*
Y3658D01*
X2519Y3654D02*
X2527D01*
Y3648D01*
X2525Y3646D01*
X2519D01*
X2527Y3634D02*
Y3640D01*
X2525Y3642D01*
X2521D01*
X2519Y3640D01*
Y3634D01*
Y3624D02*
Y3628D01*
X2521Y3630D01*
X2525D01*
X2527Y3628D01*
Y3624D01*
X2525Y3622D01*
X2523D01*
Y3630D01*
X2517Y3616D02*
X2519Y3614D01*
X2521D01*
Y3616D01*
X2519D01*
Y3614D01*
X2517Y3616D01*
X2516Y3618D01*
X2519Y3595D02*
X2527D01*
Y3593D01*
X2525Y3591D01*
X2519D01*
X2525D01*
X2527Y3589D01*
X2525Y3587D01*
X2519D01*
Y3581D02*
Y3577D01*
X2521Y3575D01*
X2525D01*
X2527Y3577D01*
Y3581D01*
X2525Y3583D01*
X2521D01*
X2519Y3581D01*
X2527Y3571D02*
X2519Y3567D01*
X2527Y3563D01*
X2519Y3553D02*
Y3557D01*
X2521Y3559D01*
X2525D01*
X2527Y3557D01*
Y3553D01*
X2525Y3551D01*
X2523D01*
Y3559D01*
X2529Y3534D02*
X2527D01*
Y3536D01*
Y3532D01*
Y3534D01*
X2521D01*
X2519Y3532D01*
Y3524D02*
Y3520D01*
X2521Y3518D01*
X2525D01*
X2527Y3520D01*
Y3524D01*
X2525Y3526D01*
X2521D01*
X2519Y3524D01*
Y3502D02*
Y3498D01*
Y3500D01*
X2527D01*
Y3502D01*
X2519Y3492D02*
X2527D01*
Y3486D01*
X2525Y3484D01*
X2519D01*
X2529Y3478D02*
X2527D01*
Y3480D01*
Y3476D01*
Y3478D01*
X2521D01*
X2519Y3476D01*
Y3465D02*
Y3469D01*
X2521Y3471D01*
X2525D01*
X2527Y3469D01*
Y3465D01*
X2525Y3463D01*
X2523D01*
Y3471D01*
X2527Y3459D02*
X2519D01*
X2523D01*
X2525Y3457D01*
X2527Y3455D01*
Y3453D01*
X2519Y3447D02*
X2527D01*
Y3441D01*
X2525Y3439D01*
X2519D01*
X2527Y3433D02*
Y3429D01*
X2525Y3427D01*
X2519D01*
Y3433D01*
X2521Y3435D01*
X2523Y3433D01*
Y3427D01*
X2519Y3423D02*
Y3419D01*
Y3421D01*
X2531D01*
Y3423D01*
X2516Y3402D02*
X2527D01*
Y3396D01*
X2525Y3394D01*
X2521D01*
X2519Y3396D01*
Y3402D01*
Y3390D02*
Y3386D01*
Y3388D01*
X2531D01*
Y3390D01*
X2527Y3378D02*
Y3374D01*
X2525Y3372D01*
X2519D01*
Y3378D01*
X2521Y3380D01*
X2523Y3378D01*
Y3372D01*
X2519Y3368D02*
X2527D01*
Y3362D01*
X2525Y3360D01*
X2519D01*
Y3351D02*
Y3354D01*
X2521Y3356D01*
X2525D01*
X2527Y3354D01*
Y3351D01*
X2525Y3349D01*
X2523D01*
Y3356D01*
X2519Y3333D02*
Y3329D01*
Y3331D01*
X2527D01*
Y3333D01*
X2519Y3321D02*
X2529D01*
X2525D01*
Y3323D01*
Y3319D01*
Y3321D01*
X2529D01*
X2531Y3319D01*
X2516Y3301D02*
X2527D01*
Y3295D01*
X2525Y3293D01*
X2521D01*
X2519Y3295D01*
Y3301D01*
X2527Y3290D02*
X2519D01*
X2523D01*
X2525Y3288D01*
X2527Y3286D01*
Y3284D01*
X2519Y3272D02*
Y3276D01*
X2521Y3278D01*
X2525D01*
X2527Y3276D01*
Y3272D01*
X2525Y3270D01*
X2523D01*
Y3278D01*
X2519Y3266D02*
Y3260D01*
X2521Y3258D01*
X2523Y3260D01*
Y3264D01*
X2525Y3266D01*
X2527Y3264D01*
Y3258D01*
X2519Y3248D02*
Y3252D01*
X2521Y3254D01*
X2525D01*
X2527Y3252D01*
Y3248D01*
X2525Y3246D01*
X2523D01*
Y3254D01*
X2519Y3242D02*
X2527D01*
Y3236D01*
X2525Y3234D01*
X2519D01*
X2529Y3229D02*
X2527D01*
Y3231D01*
Y3227D01*
Y3229D01*
X2521D01*
X2519Y3227D01*
M02*
