%FSLAX23Y23*%
%MOIN*%
G70*
G01*
G75*
%ADD10R,0.118X0.276*%
%ADD11R,0.067X0.043*%
%ADD12R,0.039X0.051*%
%ADD13R,0.055X0.043*%
%ADD14O,0.061X0.010*%
%ADD15O,0.010X0.061*%
%ADD16R,0.043X0.055*%
%ADD17R,0.051X0.039*%
%ADD18R,0.413X0.331*%
%ADD19R,0.041X0.130*%
%ADD20R,0.041X0.150*%
%ADD21R,0.421X0.331*%
%ADD22R,0.059X0.024*%
%ADD23O,0.024X0.087*%
%ADD24C,0.020*%
%ADD25C,0.010*%
%ADD26C,0.012*%
%ADD27R,0.059X0.059*%
%ADD28C,0.059*%
%ADD29C,0.150*%
%ADD30R,0.150X0.150*%
%ADD31R,0.059X0.059*%
%ADD32C,0.051*%
%ADD33C,0.073*%
%ADD34R,0.073X0.073*%
%ADD35C,0.059*%
%ADD36O,0.079X0.157*%
%ADD37O,0.157X0.079*%
%ADD38O,0.177X0.079*%
%ADD39C,0.064*%
%ADD40C,0.130*%
%ADD41C,0.088*%
%ADD42C,0.060*%
%ADD43C,0.071*%
%ADD44R,0.071X0.071*%
%ADD45C,0.067*%
%ADD46R,0.067X0.067*%
%ADD47C,0.050*%
D10*
X2683Y3680D02*
D03*
X2880D02*
D03*
D11*
X2920Y3133D02*
D03*
Y3027D02*
D03*
X2520Y2107D02*
D03*
Y2213D02*
D03*
D12*
X3726Y2850D02*
D03*
X3664D02*
D03*
X3631Y1440D02*
D03*
X3569D02*
D03*
X3069Y2160D02*
D03*
X3131D02*
D03*
D13*
X3295Y2200D02*
D03*
Y2260D02*
D03*
X3385Y2200D02*
D03*
Y2260D02*
D03*
X3455Y1385D02*
D03*
Y1445D02*
D03*
X3185Y1380D02*
D03*
Y1440D02*
D03*
X2560Y3150D02*
D03*
Y3090D02*
D03*
X2880Y1440D02*
D03*
Y1380D02*
D03*
X2790Y1440D02*
D03*
Y1380D02*
D03*
X2520Y1790D02*
D03*
Y1730D02*
D03*
X2600D02*
D03*
Y1790D02*
D03*
X3205Y2200D02*
D03*
Y2260D02*
D03*
D14*
X2842Y1948D02*
D03*
Y1928D02*
D03*
Y1908D02*
D03*
Y1889D02*
D03*
Y1869D02*
D03*
Y1849D02*
D03*
Y1830D02*
D03*
Y1810D02*
D03*
Y1790D02*
D03*
Y1770D02*
D03*
Y1751D02*
D03*
Y1731D02*
D03*
Y1711D02*
D03*
Y1692D02*
D03*
Y1672D02*
D03*
Y1652D02*
D03*
X3278D02*
D03*
Y1672D02*
D03*
Y1692D02*
D03*
Y1711D02*
D03*
Y1731D02*
D03*
Y1751D02*
D03*
Y1770D02*
D03*
Y1790D02*
D03*
Y1810D02*
D03*
Y1830D02*
D03*
Y1849D02*
D03*
Y1869D02*
D03*
Y1889D02*
D03*
Y1908D02*
D03*
Y1928D02*
D03*
Y1948D02*
D03*
D15*
X2912Y1582D02*
D03*
X2932D02*
D03*
X2952D02*
D03*
X2971D02*
D03*
X2991D02*
D03*
X3011D02*
D03*
X3030D02*
D03*
X3050D02*
D03*
X3070D02*
D03*
X3090D02*
D03*
X3109D02*
D03*
X3129D02*
D03*
X3149D02*
D03*
X3168D02*
D03*
X3188D02*
D03*
X3208D02*
D03*
Y2018D02*
D03*
X3188D02*
D03*
X3168D02*
D03*
X3149D02*
D03*
X3129D02*
D03*
X3109D02*
D03*
X3090D02*
D03*
X3070D02*
D03*
X3050D02*
D03*
X3030D02*
D03*
X3011D02*
D03*
X2991D02*
D03*
X2971D02*
D03*
X2952D02*
D03*
X2932D02*
D03*
X2912D02*
D03*
D16*
X3570Y1320D02*
D03*
X3630D02*
D03*
X3210Y3160D02*
D03*
X3270D02*
D03*
X3675Y2095D02*
D03*
X3615D02*
D03*
X3750Y1860D02*
D03*
X3810D02*
D03*
Y1700D02*
D03*
X3750D02*
D03*
X3675Y2175D02*
D03*
X3615D02*
D03*
X3750Y2380D02*
D03*
X3810D02*
D03*
X3805Y2850D02*
D03*
X3865D02*
D03*
D17*
X3675Y2679D02*
D03*
Y2741D02*
D03*
X3755Y2679D02*
D03*
Y2741D02*
D03*
X3835Y2679D02*
D03*
Y2741D02*
D03*
X3915Y2679D02*
D03*
Y2741D02*
D03*
X4095Y2841D02*
D03*
Y2779D02*
D03*
X3575Y2799D02*
D03*
Y2861D02*
D03*
D18*
X3180Y3658D02*
D03*
D19*
X3280Y3282D02*
D03*
X3180D02*
D03*
X3080D02*
D03*
D20*
X3280Y3028D02*
D03*
X3180D02*
D03*
X3080D02*
D03*
D21*
X3180Y2623D02*
D03*
D22*
X2617Y1200D02*
D03*
X2543Y1163D02*
D03*
Y1237D02*
D03*
D23*
X2495Y2734D02*
D03*
X2445D02*
D03*
X2395D02*
D03*
X2345D02*
D03*
X2495Y2546D02*
D03*
X2445D02*
D03*
X2395D02*
D03*
X2345D02*
D03*
D27*
X2380Y3080D02*
D03*
X3780Y1200D02*
D03*
X2900Y2640D02*
D03*
X2160Y1460D02*
D03*
X2380Y1200D02*
D03*
X3960Y1460D02*
D03*
D28*
X2380Y3180D02*
D03*
X3780Y1600D02*
D03*
Y1500D02*
D03*
Y1400D02*
D03*
Y1300D02*
D03*
X2900Y2540D02*
D03*
X2500Y2360D02*
D03*
X2160Y2160D02*
D03*
Y2060D02*
D03*
Y1960D02*
D03*
Y1860D02*
D03*
Y1760D02*
D03*
Y1660D02*
D03*
Y1560D02*
D03*
X2380Y1700D02*
D03*
Y1600D02*
D03*
Y1500D02*
D03*
Y1400D02*
D03*
Y1300D02*
D03*
X3060Y1200D02*
D03*
X2960D02*
D03*
X2860D02*
D03*
X2123Y3466D02*
D03*
Y3387D02*
D03*
X2359Y3545D02*
D03*
X2281D02*
D03*
X3380Y1200D02*
D03*
X3280D02*
D03*
X3180D02*
D03*
X3420Y2360D02*
D03*
X3320D02*
D03*
X3220D02*
D03*
X3120D02*
D03*
X3020D02*
D03*
X2920D02*
D03*
X2820D02*
D03*
X3875Y3170D02*
D03*
X3775D02*
D03*
X3825Y3070D02*
D03*
X3725D02*
D03*
X3675Y3170D02*
D03*
X3925Y3070D02*
D03*
X3625D02*
D03*
X3960Y1960D02*
D03*
Y1860D02*
D03*
Y1760D02*
D03*
Y1660D02*
D03*
Y1560D02*
D03*
X2662Y3320D02*
D03*
X2602Y2880D02*
D03*
D29*
X2180Y2888D02*
D03*
Y2692D02*
D03*
D30*
Y3085D02*
D03*
D31*
X2600Y2360D02*
D03*
X2760Y1200D02*
D03*
X3480D02*
D03*
X2720Y2360D02*
D03*
X3975Y3170D02*
D03*
X2858Y3320D02*
D03*
X2798Y2880D02*
D03*
D32*
X3320Y1339D02*
D03*
Y1461D02*
D03*
D33*
X2380Y2140D02*
D03*
X3560Y1900D02*
D03*
D34*
X2380Y2340D02*
D03*
X3560Y1700D02*
D03*
D35*
X2271Y3301D02*
D03*
X2369D02*
D03*
D36*
X2123Y3427D02*
D03*
D37*
X2320Y3545D02*
D03*
D38*
Y3301D02*
D03*
D39*
X3551Y3553D02*
D03*
X3651Y3620D02*
D03*
X3949Y3553D02*
D03*
X4049Y3620D02*
D03*
D40*
X3575Y3420D02*
D03*
X4025D02*
D03*
D41*
X4110Y3290D02*
D03*
X3490D02*
D03*
D42*
X4015Y1225D02*
D03*
Y2420D02*
D03*
X2205D02*
D03*
Y1225D02*
D03*
D43*
X3280Y3400D02*
D03*
X3180D02*
D03*
D44*
X3080D02*
D03*
D45*
X3080Y2900D02*
D03*
X3180D02*
D03*
D46*
X3280D02*
D03*
M02*
