M48
;Layer_Color=9474304
;FILE_FORMAT=2:3
INCH,LZ
;TYPE=PLATED
T1F00S00C0.028
T2F00S00C0.035
T3F00S00C0.059
T4F00S00C0.220
%
T01
X02387Y01463
X02568Y0152
X03506Y01554
X03138Y01567
X03249Y01711
X0326Y0214
X03699Y02023
X02977Y01579
T02
X0216Y0146
Y0156
X0322Y0236
X0332
X0342
X0312
X0302
X0292
X0282
X0272
X026
X025
X02459Y02097
X02359
X02559
X02659
X02759
X02859
X02959
X03059
Y01797
X02959
X02859
X02759
X02659
X02559
X02459
X02359
X0216Y0176
Y0166
Y0186
Y0196
Y0206
Y0216
T03
X02405Y012
X02602
X02798
X03006
X03203
X03399
X03608
X03805
X04Y01557
Y01754
Y01958
Y02155
T04
X02205Y01225
X04015
Y0242
X02205
M30
